G04 #@! TF.FileFunction,Legend,Top*
%FSLAX46Y46*%
G04 Gerber Fmt 4.6, Leading zero omitted, Abs format (unit mm)*
G04 Created by KiCad (PCBNEW 4.0.7) date 09/28/20 15:07:36*
%MOMM*%
%LPD*%
G01*
G04 APERTURE LIST*
%ADD10C,0.100000*%
%ADD11C,0.200000*%
%ADD12C,0.150000*%
%ADD13C,0.120000*%
%ADD14C,0.152400*%
%ADD15C,0.254000*%
G04 APERTURE END LIST*
D10*
D11*
X136978500Y-107902000D02*
X136978500Y-100402000D01*
X141978500Y-100402000D02*
X140351500Y-100402000D01*
X141978500Y-107902000D02*
X140351500Y-107902000D01*
X142814390Y-102580000D02*
G75*
G03X142814390Y-102580000I-45890J0D01*
G01*
D12*
X166064300Y-114771300D02*
X166064300Y-113771300D01*
X164364300Y-113771300D02*
X164364300Y-114771300D01*
X149708500Y-113682400D02*
X149708500Y-114682400D01*
X151408500Y-114682400D02*
X151408500Y-113682400D01*
X151433400Y-120103000D02*
X152433400Y-120103000D01*
X152433400Y-118403000D02*
X151433400Y-118403000D01*
X148792300Y-104325800D02*
X148792300Y-103325800D01*
X147092300Y-103325800D02*
X147092300Y-104325800D01*
X145515700Y-104309800D02*
X145515700Y-103309800D01*
X143815700Y-103309800D02*
X143815700Y-104309800D01*
X143064600Y-95784800D02*
X143064600Y-94784800D01*
X141364600Y-94784800D02*
X141364600Y-95784800D01*
D13*
X156780500Y-100237200D02*
X153480500Y-100237200D01*
X153480500Y-100237200D02*
X153480500Y-107137200D01*
X156780500Y-100237200D02*
X156780500Y-107137200D01*
X165023800Y-86169500D02*
X165023800Y-96329500D01*
X166293800Y-86169500D02*
X158673800Y-86169500D01*
X158673800Y-86169500D02*
X158673800Y-96329500D01*
X158673800Y-96329500D02*
X166293800Y-96329500D01*
X166293800Y-96329500D02*
X166293800Y-86169500D01*
X165074600Y-97104200D02*
X165074600Y-107264200D01*
X166344600Y-97104200D02*
X158724600Y-97104200D01*
X158724600Y-97104200D02*
X158724600Y-107264200D01*
X158724600Y-107264200D02*
X166344600Y-107264200D01*
X166344600Y-107264200D02*
X166344600Y-97104200D01*
D14*
X147370800Y-115600181D02*
X147370800Y-113660219D01*
X139319000Y-113660219D02*
X139319000Y-115600181D01*
D12*
X161736167Y-112099599D02*
X161736167Y-110899599D01*
X163486167Y-110899599D02*
X163486167Y-112099599D01*
X161723100Y-117913700D02*
X161723100Y-116713700D01*
X163473100Y-116713700D02*
X163473100Y-117913700D01*
X157810900Y-118352600D02*
X159010900Y-118352600D01*
X159010900Y-120102600D02*
X157810900Y-120102600D01*
D14*
X156982899Y-115657102D02*
X156432900Y-115657102D01*
X156982899Y-115497102D02*
X156982899Y-115657102D01*
X153582898Y-115497102D02*
X153582898Y-115657102D01*
X153742898Y-115657102D02*
X153582898Y-115657102D01*
X153742898Y-112257098D02*
X153582898Y-112257098D01*
X153582898Y-112257098D02*
X153582898Y-112417098D01*
X156982902Y-112257098D02*
X156822902Y-112257098D01*
X156982902Y-112257098D02*
X156982902Y-112417098D01*
D13*
X144009700Y-94586200D02*
X144009700Y-96086200D01*
X144009700Y-96086200D02*
X144279700Y-96086200D01*
X144279700Y-96086200D02*
X144279700Y-98916200D01*
X150909700Y-94586200D02*
X150909700Y-96086200D01*
X150909700Y-96086200D02*
X150639700Y-96086200D01*
X150639700Y-96086200D02*
X150639700Y-97186200D01*
D15*
X139863024Y-104888333D02*
X140770167Y-104888333D01*
X140951595Y-104948809D01*
X141072548Y-105069761D01*
X141133024Y-105251190D01*
X141133024Y-105372142D01*
X139983976Y-104344047D02*
X139923500Y-104283571D01*
X139863024Y-104162619D01*
X139863024Y-103860238D01*
X139923500Y-103739285D01*
X139983976Y-103678809D01*
X140104929Y-103618333D01*
X140225881Y-103618333D01*
X140407310Y-103678809D01*
X141133024Y-104404523D01*
X141133024Y-103618333D01*
D12*
X164946034Y-111821743D02*
X164898415Y-111869362D01*
X164755558Y-111916981D01*
X164660320Y-111916981D01*
X164517462Y-111869362D01*
X164422224Y-111774124D01*
X164374605Y-111678886D01*
X164326986Y-111488410D01*
X164326986Y-111345552D01*
X164374605Y-111155076D01*
X164422224Y-111059838D01*
X164517462Y-110964600D01*
X164660320Y-110916981D01*
X164755558Y-110916981D01*
X164898415Y-110964600D01*
X164946034Y-111012219D01*
X165898415Y-111916981D02*
X165326986Y-111916981D01*
X165612700Y-111916981D02*
X165612700Y-110916981D01*
X165517462Y-111059838D01*
X165422224Y-111155076D01*
X165326986Y-111202695D01*
X149124943Y-114247466D02*
X149172562Y-114295085D01*
X149220181Y-114437942D01*
X149220181Y-114533180D01*
X149172562Y-114676038D01*
X149077324Y-114771276D01*
X148982086Y-114818895D01*
X148791610Y-114866514D01*
X148648752Y-114866514D01*
X148458276Y-114818895D01*
X148363038Y-114771276D01*
X148267800Y-114676038D01*
X148220181Y-114533180D01*
X148220181Y-114437942D01*
X148267800Y-114295085D01*
X148315419Y-114247466D01*
X148315419Y-113866514D02*
X148267800Y-113818895D01*
X148220181Y-113723657D01*
X148220181Y-113485561D01*
X148267800Y-113390323D01*
X148315419Y-113342704D01*
X148410657Y-113295085D01*
X148505895Y-113295085D01*
X148648752Y-113342704D01*
X149220181Y-113914133D01*
X149220181Y-113295085D01*
X148658534Y-119495843D02*
X148610915Y-119543462D01*
X148468058Y-119591081D01*
X148372820Y-119591081D01*
X148229962Y-119543462D01*
X148134724Y-119448224D01*
X148087105Y-119352986D01*
X148039486Y-119162510D01*
X148039486Y-119019652D01*
X148087105Y-118829176D01*
X148134724Y-118733938D01*
X148229962Y-118638700D01*
X148372820Y-118591081D01*
X148468058Y-118591081D01*
X148610915Y-118638700D01*
X148658534Y-118686319D01*
X148991867Y-118591081D02*
X149610915Y-118591081D01*
X149277581Y-118972033D01*
X149420439Y-118972033D01*
X149515677Y-119019652D01*
X149563296Y-119067271D01*
X149610915Y-119162510D01*
X149610915Y-119400605D01*
X149563296Y-119495843D01*
X149515677Y-119543462D01*
X149420439Y-119591081D01*
X149134724Y-119591081D01*
X149039486Y-119543462D01*
X148991867Y-119495843D01*
X148286743Y-106757766D02*
X148334362Y-106805385D01*
X148381981Y-106948242D01*
X148381981Y-107043480D01*
X148334362Y-107186338D01*
X148239124Y-107281576D01*
X148143886Y-107329195D01*
X147953410Y-107376814D01*
X147810552Y-107376814D01*
X147620076Y-107329195D01*
X147524838Y-107281576D01*
X147429600Y-107186338D01*
X147381981Y-107043480D01*
X147381981Y-106948242D01*
X147429600Y-106805385D01*
X147477219Y-106757766D01*
X147715314Y-105900623D02*
X148381981Y-105900623D01*
X147334362Y-106138719D02*
X148048648Y-106376814D01*
X148048648Y-105757766D01*
X145060943Y-106745066D02*
X145108562Y-106792685D01*
X145156181Y-106935542D01*
X145156181Y-107030780D01*
X145108562Y-107173638D01*
X145013324Y-107268876D01*
X144918086Y-107316495D01*
X144727610Y-107364114D01*
X144584752Y-107364114D01*
X144394276Y-107316495D01*
X144299038Y-107268876D01*
X144203800Y-107173638D01*
X144156181Y-107030780D01*
X144156181Y-106935542D01*
X144203800Y-106792685D01*
X144251419Y-106745066D01*
X144156181Y-105840304D02*
X144156181Y-106316495D01*
X144632371Y-106364114D01*
X144584752Y-106316495D01*
X144537133Y-106221257D01*
X144537133Y-105983161D01*
X144584752Y-105887923D01*
X144632371Y-105840304D01*
X144727610Y-105792685D01*
X144965705Y-105792685D01*
X145060943Y-105840304D01*
X145108562Y-105887923D01*
X145156181Y-105983161D01*
X145156181Y-106221257D01*
X145108562Y-106316495D01*
X145060943Y-106364114D01*
X140730243Y-95451466D02*
X140777862Y-95499085D01*
X140825481Y-95641942D01*
X140825481Y-95737180D01*
X140777862Y-95880038D01*
X140682624Y-95975276D01*
X140587386Y-96022895D01*
X140396910Y-96070514D01*
X140254052Y-96070514D01*
X140063576Y-96022895D01*
X139968338Y-95975276D01*
X139873100Y-95880038D01*
X139825481Y-95737180D01*
X139825481Y-95641942D01*
X139873100Y-95499085D01*
X139920719Y-95451466D01*
X139825481Y-94594323D02*
X139825481Y-94784800D01*
X139873100Y-94880038D01*
X139920719Y-94927657D01*
X140063576Y-95022895D01*
X140254052Y-95070514D01*
X140635005Y-95070514D01*
X140730243Y-95022895D01*
X140777862Y-94975276D01*
X140825481Y-94880038D01*
X140825481Y-94689561D01*
X140777862Y-94594323D01*
X140730243Y-94546704D01*
X140635005Y-94499085D01*
X140396910Y-94499085D01*
X140301671Y-94546704D01*
X140254052Y-94594323D01*
X140206433Y-94689561D01*
X140206433Y-94880038D01*
X140254052Y-94975276D01*
X140301671Y-95022895D01*
X140396910Y-95070514D01*
X153080981Y-105373395D02*
X152080981Y-105373395D01*
X152080981Y-105135300D01*
X152128600Y-104992442D01*
X152223838Y-104897204D01*
X152319076Y-104849585D01*
X152509552Y-104801966D01*
X152652410Y-104801966D01*
X152842886Y-104849585D01*
X152938124Y-104897204D01*
X153033362Y-104992442D01*
X153080981Y-105135300D01*
X153080981Y-105373395D01*
X153080981Y-103849585D02*
X153080981Y-104421014D01*
X153080981Y-104135300D02*
X152080981Y-104135300D01*
X152223838Y-104230538D01*
X152319076Y-104325776D01*
X152366695Y-104421014D01*
X157033981Y-91747933D02*
X157748267Y-91747933D01*
X157891124Y-91795553D01*
X157986362Y-91890791D01*
X158033981Y-92033648D01*
X158033981Y-92128886D01*
X158033981Y-90747933D02*
X158033981Y-91319362D01*
X158033981Y-91033648D02*
X157033981Y-91033648D01*
X157176838Y-91128886D01*
X157272076Y-91224124D01*
X157319695Y-91319362D01*
X157186381Y-102530233D02*
X157900667Y-102530233D01*
X158043524Y-102577853D01*
X158138762Y-102673091D01*
X158186381Y-102815948D01*
X158186381Y-102911186D01*
X157186381Y-102149281D02*
X157186381Y-101530233D01*
X157567333Y-101863567D01*
X157567333Y-101720709D01*
X157614952Y-101625471D01*
X157662571Y-101577852D01*
X157757810Y-101530233D01*
X157995905Y-101530233D01*
X158091143Y-101577852D01*
X158138762Y-101625471D01*
X158186381Y-101720709D01*
X158186381Y-102006424D01*
X158138762Y-102101662D01*
X158091143Y-102149281D01*
X143305234Y-109989881D02*
X142829043Y-109989881D01*
X142829043Y-108989881D01*
X144162377Y-109989881D02*
X143590948Y-109989881D01*
X143876662Y-109989881D02*
X143876662Y-108989881D01*
X143781424Y-109132738D01*
X143686186Y-109227976D01*
X143590948Y-109275595D01*
X143749662Y-117844486D02*
X143797281Y-117701629D01*
X143797281Y-117463533D01*
X143749662Y-117368295D01*
X143702043Y-117320676D01*
X143606805Y-117273057D01*
X143511567Y-117273057D01*
X143416329Y-117320676D01*
X143368710Y-117368295D01*
X143321090Y-117463533D01*
X143273471Y-117654010D01*
X143225852Y-117749248D01*
X143178233Y-117796867D01*
X143082995Y-117844486D01*
X142987757Y-117844486D01*
X142892519Y-117796867D01*
X142844900Y-117749248D01*
X142797281Y-117654010D01*
X142797281Y-117415914D01*
X142844900Y-117273057D01*
X143797281Y-116844486D02*
X142797281Y-116844486D01*
X142797281Y-116606391D01*
X142844900Y-116463533D01*
X142940138Y-116368295D01*
X143035376Y-116320676D01*
X143225852Y-116273057D01*
X143368710Y-116273057D01*
X143559186Y-116320676D01*
X143654424Y-116368295D01*
X143749662Y-116463533D01*
X143797281Y-116606391D01*
X143797281Y-116844486D01*
X143797281Y-115273057D02*
X143321090Y-115606391D01*
X143797281Y-115844486D02*
X142797281Y-115844486D01*
X142797281Y-115463533D01*
X142844900Y-115368295D01*
X142892519Y-115320676D01*
X142987757Y-115273057D01*
X143130614Y-115273057D01*
X143225852Y-115320676D01*
X143273471Y-115368295D01*
X143321090Y-115463533D01*
X143321090Y-115844486D01*
X142797281Y-114654010D02*
X142797281Y-114558771D01*
X142844900Y-114463533D01*
X142892519Y-114415914D01*
X142987757Y-114368295D01*
X143178233Y-114320676D01*
X143416329Y-114320676D01*
X143606805Y-114368295D01*
X143702043Y-114415914D01*
X143749662Y-114463533D01*
X143797281Y-114558771D01*
X143797281Y-114654010D01*
X143749662Y-114749248D01*
X143702043Y-114796867D01*
X143606805Y-114844486D01*
X143416329Y-114892105D01*
X143178233Y-114892105D01*
X142987757Y-114844486D01*
X142892519Y-114796867D01*
X142844900Y-114749248D01*
X142797281Y-114654010D01*
X143273471Y-113558771D02*
X143321090Y-113415914D01*
X143368710Y-113368295D01*
X143463948Y-113320676D01*
X143606805Y-113320676D01*
X143702043Y-113368295D01*
X143749662Y-113415914D01*
X143797281Y-113511152D01*
X143797281Y-113892105D01*
X142797281Y-113892105D01*
X142797281Y-113558771D01*
X142844900Y-113463533D01*
X142892519Y-113415914D01*
X142987757Y-113368295D01*
X143082995Y-113368295D01*
X143178233Y-113415914D01*
X143225852Y-113463533D01*
X143273471Y-113558771D01*
X143273471Y-113892105D01*
X142797281Y-112701629D02*
X142797281Y-112606390D01*
X142844900Y-112511152D01*
X142892519Y-112463533D01*
X142987757Y-112415914D01*
X143178233Y-112368295D01*
X143416329Y-112368295D01*
X143606805Y-112415914D01*
X143702043Y-112463533D01*
X143749662Y-112511152D01*
X143797281Y-112606390D01*
X143797281Y-112701629D01*
X143749662Y-112796867D01*
X143702043Y-112844486D01*
X143606805Y-112892105D01*
X143416329Y-112939724D01*
X143178233Y-112939724D01*
X142987757Y-112892105D01*
X142892519Y-112844486D01*
X142844900Y-112796867D01*
X142797281Y-112701629D01*
X142797281Y-111463533D02*
X142797281Y-111939724D01*
X143273471Y-111987343D01*
X143225852Y-111939724D01*
X143178233Y-111844486D01*
X143178233Y-111606390D01*
X143225852Y-111511152D01*
X143273471Y-111463533D01*
X143368710Y-111415914D01*
X143606805Y-111415914D01*
X143702043Y-111463533D01*
X143749662Y-111511152D01*
X143797281Y-111606390D01*
X143797281Y-111844486D01*
X143749662Y-111939724D01*
X143702043Y-111987343D01*
X142797281Y-119545100D02*
X143035376Y-119545100D01*
X142940138Y-119783195D02*
X143035376Y-119545100D01*
X142940138Y-119307004D01*
X143225852Y-119687957D02*
X143035376Y-119545100D01*
X143225852Y-119402242D01*
X142797281Y-119545100D02*
X143035376Y-119545100D01*
X142940138Y-119783195D02*
X143035376Y-119545100D01*
X142940138Y-119307004D01*
X143225852Y-119687957D02*
X143035376Y-119545100D01*
X143225852Y-119402242D01*
X162533034Y-108808781D02*
X162199700Y-108332590D01*
X161961605Y-108808781D02*
X161961605Y-107808781D01*
X162342558Y-107808781D01*
X162437796Y-107856400D01*
X162485415Y-107904019D01*
X162533034Y-107999257D01*
X162533034Y-108142114D01*
X162485415Y-108237352D01*
X162437796Y-108284971D01*
X162342558Y-108332590D01*
X161961605Y-108332590D01*
X163485415Y-108808781D02*
X162913986Y-108808781D01*
X163199700Y-108808781D02*
X163199700Y-107808781D01*
X163104462Y-107951638D01*
X163009224Y-108046876D01*
X162913986Y-108094495D01*
X162482234Y-120924581D02*
X162148900Y-120448390D01*
X161910805Y-120924581D02*
X161910805Y-119924581D01*
X162291758Y-119924581D01*
X162386996Y-119972200D01*
X162434615Y-120019819D01*
X162482234Y-120115057D01*
X162482234Y-120257914D01*
X162434615Y-120353152D01*
X162386996Y-120400771D01*
X162291758Y-120448390D01*
X161910805Y-120448390D01*
X162863186Y-120019819D02*
X162910805Y-119972200D01*
X163006043Y-119924581D01*
X163244139Y-119924581D01*
X163339377Y-119972200D01*
X163386996Y-120019819D01*
X163434615Y-120115057D01*
X163434615Y-120210295D01*
X163386996Y-120353152D01*
X162815567Y-120924581D01*
X163434615Y-120924581D01*
X154844434Y-119794281D02*
X154511100Y-119318090D01*
X154273005Y-119794281D02*
X154273005Y-118794281D01*
X154653958Y-118794281D01*
X154749196Y-118841900D01*
X154796815Y-118889519D01*
X154844434Y-118984757D01*
X154844434Y-119127614D01*
X154796815Y-119222852D01*
X154749196Y-119270471D01*
X154653958Y-119318090D01*
X154273005Y-119318090D01*
X155177767Y-118794281D02*
X155796815Y-118794281D01*
X155463481Y-119175233D01*
X155606339Y-119175233D01*
X155701577Y-119222852D01*
X155749196Y-119270471D01*
X155796815Y-119365710D01*
X155796815Y-119603805D01*
X155749196Y-119699043D01*
X155701577Y-119746662D01*
X155606339Y-119794281D01*
X155320624Y-119794281D01*
X155225386Y-119746662D01*
X155177767Y-119699043D01*
X157739056Y-114135819D02*
X157739056Y-114945343D01*
X157786675Y-115040581D01*
X157834294Y-115088200D01*
X157929532Y-115135819D01*
X158120009Y-115135819D01*
X158215247Y-115088200D01*
X158262866Y-115040581D01*
X158310485Y-114945343D01*
X158310485Y-114135819D01*
X159310485Y-115135819D02*
X158739056Y-115135819D01*
X159024770Y-115135819D02*
X159024770Y-114135819D01*
X158929532Y-114278676D01*
X158834294Y-114373914D01*
X158739056Y-114421533D01*
X149663849Y-110920281D02*
X150235278Y-110920281D01*
X149949563Y-111920281D02*
X149949563Y-110920281D01*
X150568611Y-111920281D02*
X150568611Y-110920281D01*
X150949564Y-110920281D01*
X151044802Y-110967900D01*
X151092421Y-111015519D01*
X151140040Y-111110757D01*
X151140040Y-111253614D01*
X151092421Y-111348852D01*
X151044802Y-111396471D01*
X150949564Y-111444090D01*
X150568611Y-111444090D01*
X151520992Y-111872662D02*
X151663849Y-111920281D01*
X151901945Y-111920281D01*
X151997183Y-111872662D01*
X152044802Y-111825043D01*
X152092421Y-111729805D01*
X152092421Y-111634567D01*
X152044802Y-111539329D01*
X151997183Y-111491710D01*
X151901945Y-111444090D01*
X151711468Y-111396471D01*
X151616230Y-111348852D01*
X151568611Y-111301233D01*
X151520992Y-111205995D01*
X151520992Y-111110757D01*
X151568611Y-111015519D01*
X151616230Y-110967900D01*
X151711468Y-110920281D01*
X151949564Y-110920281D01*
X152092421Y-110967900D01*
X152949564Y-110920281D02*
X152759087Y-110920281D01*
X152663849Y-110967900D01*
X152616230Y-111015519D01*
X152520992Y-111158376D01*
X152473373Y-111348852D01*
X152473373Y-111729805D01*
X152520992Y-111825043D01*
X152568611Y-111872662D01*
X152663849Y-111920281D01*
X152854326Y-111920281D01*
X152949564Y-111872662D01*
X152997183Y-111825043D01*
X153044802Y-111729805D01*
X153044802Y-111491710D01*
X152997183Y-111396471D01*
X152949564Y-111348852D01*
X152854326Y-111301233D01*
X152663849Y-111301233D01*
X152568611Y-111348852D01*
X152520992Y-111396471D01*
X152473373Y-111491710D01*
X153997183Y-111920281D02*
X153425754Y-111920281D01*
X153711468Y-111920281D02*
X153711468Y-110920281D01*
X153616230Y-111063138D01*
X153520992Y-111158376D01*
X153425754Y-111205995D01*
X154616230Y-110920281D02*
X154711469Y-110920281D01*
X154806707Y-110967900D01*
X154854326Y-111015519D01*
X154901945Y-111110757D01*
X154949564Y-111301233D01*
X154949564Y-111539329D01*
X154901945Y-111729805D01*
X154854326Y-111825043D01*
X154806707Y-111872662D01*
X154711469Y-111920281D01*
X154616230Y-111920281D01*
X154520992Y-111872662D01*
X154473373Y-111825043D01*
X154425754Y-111729805D01*
X154378135Y-111539329D01*
X154378135Y-111301233D01*
X154425754Y-111110757D01*
X154473373Y-111015519D01*
X154520992Y-110967900D01*
X154616230Y-110920281D01*
X155520992Y-111348852D02*
X155425754Y-111301233D01*
X155378135Y-111253614D01*
X155330516Y-111158376D01*
X155330516Y-111110757D01*
X155378135Y-111015519D01*
X155425754Y-110967900D01*
X155520992Y-110920281D01*
X155711469Y-110920281D01*
X155806707Y-110967900D01*
X155854326Y-111015519D01*
X155901945Y-111110757D01*
X155901945Y-111158376D01*
X155854326Y-111253614D01*
X155806707Y-111301233D01*
X155711469Y-111348852D01*
X155520992Y-111348852D01*
X155425754Y-111396471D01*
X155378135Y-111444090D01*
X155330516Y-111539329D01*
X155330516Y-111729805D01*
X155378135Y-111825043D01*
X155425754Y-111872662D01*
X155520992Y-111920281D01*
X155711469Y-111920281D01*
X155806707Y-111872662D01*
X155854326Y-111825043D01*
X155901945Y-111729805D01*
X155901945Y-111539329D01*
X155854326Y-111444090D01*
X155806707Y-111396471D01*
X155711469Y-111348852D01*
X156235278Y-110920281D02*
X156901945Y-110920281D01*
X156473373Y-111920281D01*
X157282897Y-111920281D02*
X157282897Y-110920281D01*
X157520992Y-110920281D01*
X157663850Y-110967900D01*
X157759088Y-111063138D01*
X157806707Y-111158376D01*
X157854326Y-111348852D01*
X157854326Y-111491710D01*
X157806707Y-111682186D01*
X157759088Y-111777424D01*
X157663850Y-111872662D01*
X157520992Y-111920281D01*
X157282897Y-111920281D01*
X158235278Y-111872662D02*
X158378135Y-111920281D01*
X158616231Y-111920281D01*
X158711469Y-111872662D01*
X158759088Y-111825043D01*
X158806707Y-111729805D01*
X158806707Y-111634567D01*
X158759088Y-111539329D01*
X158711469Y-111491710D01*
X158616231Y-111444090D01*
X158425754Y-111396471D01*
X158330516Y-111348852D01*
X158282897Y-111301233D01*
X158235278Y-111205995D01*
X158235278Y-111110757D01*
X158282897Y-111015519D01*
X158330516Y-110967900D01*
X158425754Y-110920281D01*
X158663850Y-110920281D01*
X158806707Y-110967900D01*
X159806707Y-111825043D02*
X159759088Y-111872662D01*
X159616231Y-111920281D01*
X159520993Y-111920281D01*
X159378135Y-111872662D01*
X159282897Y-111777424D01*
X159235278Y-111682186D01*
X159187659Y-111491710D01*
X159187659Y-111348852D01*
X159235278Y-111158376D01*
X159282897Y-111063138D01*
X159378135Y-110967900D01*
X159520993Y-110920281D01*
X159616231Y-110920281D01*
X159759088Y-110967900D01*
X159806707Y-111015519D01*
X160806707Y-111920281D02*
X160473373Y-111444090D01*
X160235278Y-111920281D02*
X160235278Y-110920281D01*
X160616231Y-110920281D01*
X160711469Y-110967900D01*
X160759088Y-111015519D01*
X160806707Y-111110757D01*
X160806707Y-111253614D01*
X160759088Y-111348852D01*
X160711469Y-111396471D01*
X160616231Y-111444090D01*
X160235278Y-111444090D01*
X155282900Y-113409481D02*
X155282900Y-113647576D01*
X155044805Y-113552338D02*
X155282900Y-113647576D01*
X155520996Y-113552338D01*
X155140043Y-113838052D02*
X155282900Y-113647576D01*
X155425758Y-113838052D01*
X149722530Y-117482881D02*
X149722530Y-116482881D01*
X149960625Y-116482881D01*
X150103483Y-116530500D01*
X150198721Y-116625738D01*
X150246340Y-116720976D01*
X150293959Y-116911452D01*
X150293959Y-117054310D01*
X150246340Y-117244786D01*
X150198721Y-117340024D01*
X150103483Y-117435262D01*
X149960625Y-117482881D01*
X149722530Y-117482881D01*
X151103483Y-117435262D02*
X151008245Y-117482881D01*
X150817768Y-117482881D01*
X150722530Y-117435262D01*
X150674911Y-117340024D01*
X150674911Y-116959071D01*
X150722530Y-116863833D01*
X150817768Y-116816214D01*
X151008245Y-116816214D01*
X151103483Y-116863833D01*
X151151102Y-116959071D01*
X151151102Y-117054310D01*
X150674911Y-117149548D01*
X151532054Y-117435262D02*
X151627292Y-117482881D01*
X151817768Y-117482881D01*
X151913007Y-117435262D01*
X151960626Y-117340024D01*
X151960626Y-117292405D01*
X151913007Y-117197167D01*
X151817768Y-117149548D01*
X151674911Y-117149548D01*
X151579673Y-117101929D01*
X151532054Y-117006690D01*
X151532054Y-116959071D01*
X151579673Y-116863833D01*
X151674911Y-116816214D01*
X151817768Y-116816214D01*
X151913007Y-116863833D01*
X152389197Y-117482881D02*
X152389197Y-116816214D01*
X152389197Y-116482881D02*
X152341578Y-116530500D01*
X152389197Y-116578119D01*
X152436816Y-116530500D01*
X152389197Y-116482881D01*
X152389197Y-116578119D01*
X153293959Y-116816214D02*
X153293959Y-117625738D01*
X153246340Y-117720976D01*
X153198721Y-117768595D01*
X153103482Y-117816214D01*
X152960625Y-117816214D01*
X152865387Y-117768595D01*
X153293959Y-117435262D02*
X153198721Y-117482881D01*
X153008244Y-117482881D01*
X152913006Y-117435262D01*
X152865387Y-117387643D01*
X152817768Y-117292405D01*
X152817768Y-117006690D01*
X152865387Y-116911452D01*
X152913006Y-116863833D01*
X153008244Y-116816214D01*
X153198721Y-116816214D01*
X153293959Y-116863833D01*
X153770149Y-116816214D02*
X153770149Y-117482881D01*
X153770149Y-116911452D02*
X153817768Y-116863833D01*
X153913006Y-116816214D01*
X154055864Y-116816214D01*
X154151102Y-116863833D01*
X154198721Y-116959071D01*
X154198721Y-117482881D01*
X155103483Y-117482881D02*
X155103483Y-116959071D01*
X155055864Y-116863833D01*
X154960626Y-116816214D01*
X154770149Y-116816214D01*
X154674911Y-116863833D01*
X155103483Y-117435262D02*
X155008245Y-117482881D01*
X154770149Y-117482881D01*
X154674911Y-117435262D01*
X154627292Y-117340024D01*
X154627292Y-117244786D01*
X154674911Y-117149548D01*
X154770149Y-117101929D01*
X155008245Y-117101929D01*
X155103483Y-117054310D01*
X155436816Y-116816214D02*
X155817768Y-116816214D01*
X155579673Y-116482881D02*
X155579673Y-117340024D01*
X155627292Y-117435262D01*
X155722530Y-117482881D01*
X155817768Y-117482881D01*
X156293959Y-117482881D02*
X156198721Y-117435262D01*
X156151102Y-117387643D01*
X156103483Y-117292405D01*
X156103483Y-117006690D01*
X156151102Y-116911452D01*
X156198721Y-116863833D01*
X156293959Y-116816214D01*
X156436817Y-116816214D01*
X156532055Y-116863833D01*
X156579674Y-116911452D01*
X156627293Y-117006690D01*
X156627293Y-117292405D01*
X156579674Y-117387643D01*
X156532055Y-117435262D01*
X156436817Y-117482881D01*
X156293959Y-117482881D01*
X157055864Y-117482881D02*
X157055864Y-116816214D01*
X157055864Y-117006690D02*
X157103483Y-116911452D01*
X157151102Y-116863833D01*
X157246340Y-116816214D01*
X157341579Y-116816214D01*
X158103484Y-116816214D02*
X158103484Y-117482881D01*
X157865388Y-116435262D02*
X157627293Y-117149548D01*
X158246341Y-117149548D01*
X158579674Y-116578119D02*
X158627293Y-116530500D01*
X158722531Y-116482881D01*
X158960627Y-116482881D01*
X159055865Y-116530500D01*
X159103484Y-116578119D01*
X159151103Y-116673357D01*
X159151103Y-116768595D01*
X159103484Y-116911452D01*
X158532055Y-117482881D01*
X159151103Y-117482881D01*
X160008246Y-116482881D02*
X159817769Y-116482881D01*
X159722531Y-116530500D01*
X159674912Y-116578119D01*
X159579674Y-116720976D01*
X159532055Y-116911452D01*
X159532055Y-117292405D01*
X159579674Y-117387643D01*
X159627293Y-117435262D01*
X159722531Y-117482881D01*
X159913008Y-117482881D01*
X160008246Y-117435262D01*
X160055865Y-117387643D01*
X160103484Y-117292405D01*
X160103484Y-117054310D01*
X160055865Y-116959071D01*
X160008246Y-116911452D01*
X159913008Y-116863833D01*
X159722531Y-116863833D01*
X159627293Y-116911452D01*
X159579674Y-116959071D01*
X159532055Y-117054310D01*
X141871795Y-90587581D02*
X141871795Y-91397105D01*
X141919414Y-91492343D01*
X141967033Y-91539962D01*
X142062271Y-91587581D01*
X142252748Y-91587581D01*
X142347986Y-91539962D01*
X142395605Y-91492343D01*
X142443224Y-91397105D01*
X142443224Y-90587581D01*
X142871795Y-90682819D02*
X142919414Y-90635200D01*
X143014652Y-90587581D01*
X143252748Y-90587581D01*
X143347986Y-90635200D01*
X143395605Y-90682819D01*
X143443224Y-90778057D01*
X143443224Y-90873295D01*
X143395605Y-91016152D01*
X142824176Y-91587581D01*
X143443224Y-91587581D01*
M02*
