G04 #@! TF.FileFunction,Copper,L1,Top,Signal*
%FSLAX46Y46*%
G04 Gerber Fmt 4.6, Leading zero omitted, Abs format (unit mm)*
G04 Created by KiCad (PCBNEW 4.0.7) date 09/28/20 15:07:36*
%MOMM*%
%LPD*%
G01*
G04 APERTURE LIST*
%ADD10C,0.100000*%
%ADD11R,1.380000X0.450000*%
%ADD12R,2.100000X1.475000*%
%ADD13R,1.900000X1.175000*%
%ADD14R,1.900000X2.375000*%
%ADD15R,1.250000X1.000000*%
%ADD16R,1.000000X1.250000*%
%ADD17R,1.800000X3.500000*%
%ADD18R,3.000000X3.000000*%
%ADD19C,3.000000*%
%ADD20R,8.001000X2.705100*%
%ADD21R,1.300000X1.500000*%
%ADD22R,1.500000X1.300000*%
%ADD23R,0.599999X0.249999*%
%ADD24R,1.599999X2.000001*%
%ADD25R,1.200000X2.200000*%
%ADD26R,5.800000X6.400000*%
%ADD27R,2.750000X3.050000*%
%ADD28C,0.600000*%
%ADD29C,0.508000*%
%ADD30C,0.250000*%
%ADD31C,0.254000*%
G04 APERTURE END LIST*
D10*
D11*
X141788500Y-102852000D03*
X141788500Y-103502000D03*
X141788500Y-104152000D03*
X141788500Y-104802000D03*
X141788500Y-105452000D03*
D12*
X141428500Y-106604500D03*
X141428500Y-101699500D03*
D13*
X139128500Y-103314500D03*
X139128500Y-104989500D03*
D14*
X139128500Y-101239500D03*
X139128500Y-107064500D03*
D15*
X165214300Y-113271300D03*
X165214300Y-115271300D03*
X150558500Y-115182400D03*
X150558500Y-113182400D03*
D16*
X152933400Y-119253000D03*
X150933400Y-119253000D03*
D15*
X147942300Y-102825800D03*
X147942300Y-104825800D03*
X144665700Y-102809800D03*
X144665700Y-104809800D03*
X142214600Y-94284800D03*
X142214600Y-96284800D03*
D17*
X155130500Y-102137200D03*
X155130500Y-107137200D03*
D18*
X162483800Y-93789500D03*
D19*
X162483800Y-88709500D03*
D18*
X162534600Y-104724200D03*
D19*
X162534600Y-99644200D03*
D20*
X143344900Y-117284500D03*
X143344900Y-111975900D03*
D21*
X162611167Y-110149599D03*
X162611167Y-112849599D03*
X162598100Y-115963700D03*
X162598100Y-118663700D03*
D22*
X159760900Y-119227600D03*
X157060900Y-119227600D03*
D23*
X156682900Y-114957101D03*
X156682900Y-114457099D03*
X156682900Y-113957100D03*
X156682900Y-113457101D03*
X156682900Y-112957099D03*
X153882900Y-112957099D03*
X153882900Y-113457101D03*
X153882900Y-113957100D03*
X153882900Y-114457099D03*
X153882900Y-114957101D03*
D24*
X155282897Y-113957100D03*
D25*
X145179700Y-97816200D03*
X149739700Y-97816200D03*
D26*
X147459700Y-91516200D03*
D27*
X148984700Y-89841200D03*
X145934700Y-93191200D03*
X145934700Y-89841200D03*
X148984700Y-93191200D03*
D28*
X163982400Y-118656100D03*
X165201600Y-116649500D03*
X142214600Y-97726500D03*
X146989800Y-97815400D03*
X142722600Y-108216700D03*
X146329400Y-104838500D03*
X149631400Y-104825800D03*
X162547300Y-107035600D03*
X159740600Y-93789500D03*
X155295600Y-112039400D03*
X157556200Y-112509300D03*
X148920200Y-111683800D03*
X150939500Y-117297200D03*
X159372300Y-112712500D03*
X152615900Y-115925600D03*
X152527000Y-113868200D03*
D29*
X156538500Y-102137200D02*
X159031500Y-99644200D01*
X159031500Y-99644200D02*
X162534600Y-99644200D01*
X155130500Y-102137200D02*
X156538500Y-102137200D01*
X156538500Y-102137200D02*
X158076900Y-103675600D01*
X158076900Y-103675600D02*
X158076900Y-109194600D01*
X158076900Y-109194600D02*
X159031899Y-110149599D01*
X159031899Y-110149599D02*
X162611167Y-110149599D01*
X165214300Y-110972600D02*
X165214300Y-113271300D01*
X164391299Y-110149599D02*
X165214300Y-110972600D01*
X162611167Y-110149599D02*
X164391299Y-110149599D01*
X165214300Y-113271300D02*
X165214300Y-112263300D01*
D30*
X156682900Y-113457101D02*
X156682900Y-112957099D01*
X162598100Y-118663700D02*
X163974800Y-118663700D01*
X163974800Y-118663700D02*
X163982400Y-118656100D01*
X165214300Y-115271300D02*
X165214300Y-116636800D01*
X165214300Y-116636800D02*
X165201600Y-116649500D01*
X142214600Y-96284800D02*
X142214600Y-97726500D01*
X142214600Y-97828100D02*
X142214600Y-97726500D01*
X145179700Y-97816200D02*
X146989000Y-97816200D01*
X146989000Y-97816200D02*
X146989800Y-97815400D01*
X141788500Y-105452000D02*
X141788500Y-106244500D01*
X141788500Y-106244500D02*
X141428500Y-106604500D01*
X141428500Y-106604500D02*
X141428500Y-107592000D01*
X141428500Y-107592000D02*
X142053200Y-108216700D01*
X142053200Y-108216700D02*
X142722600Y-108216700D01*
X144665700Y-104809800D02*
X146300700Y-104809800D01*
X146300700Y-104809800D02*
X146329400Y-104838500D01*
X147942300Y-104825800D02*
X149631400Y-104825800D01*
X162534600Y-104724200D02*
X162534600Y-107022900D01*
X162534600Y-107022900D02*
X162547300Y-107035600D01*
X162483800Y-93789500D02*
X159740600Y-93789500D01*
D31*
X155282897Y-113957100D02*
X155282897Y-112052103D01*
X155282897Y-112052103D02*
X155295600Y-112039400D01*
X156682900Y-112957099D02*
X157108401Y-112957099D01*
X157108401Y-112957099D02*
X157556200Y-112509300D01*
X148920200Y-111683800D02*
X150050500Y-111683800D01*
X150050500Y-111683800D02*
X150558500Y-112191800D01*
X150558500Y-113182400D02*
X150558500Y-112191800D01*
X150558500Y-113182400D02*
X150418800Y-113182400D01*
X150933400Y-119253000D02*
X150933400Y-117303300D01*
X150933400Y-117303300D02*
X150939500Y-117297200D01*
X152254200Y-115182400D02*
X152479499Y-114957101D01*
X152479499Y-114957101D02*
X153882900Y-114957101D01*
X150558500Y-115182400D02*
X152254200Y-115182400D01*
X152933400Y-119253000D02*
X157035500Y-119253000D01*
X157035500Y-119253000D02*
X157060900Y-119227600D01*
D30*
X153882900Y-113957100D02*
X152615900Y-113957100D01*
X152615900Y-113957100D02*
X152527000Y-113868200D01*
X159796564Y-112712500D02*
X160312100Y-112712500D01*
X159372300Y-112712500D02*
X159796564Y-112712500D01*
X152615900Y-115925600D02*
X152915899Y-116225599D01*
X152915899Y-116225599D02*
X153195299Y-116225599D01*
X158254701Y-113830099D02*
X159372300Y-112712500D01*
X158242000Y-113830099D02*
X158254701Y-113830099D01*
X156682900Y-113957100D02*
X158114999Y-113957100D01*
X158114999Y-113957100D02*
X158242000Y-113830099D01*
X141788500Y-102852000D02*
X144623500Y-102852000D01*
X144623500Y-102852000D02*
X144665700Y-102809800D01*
D31*
X153882900Y-114457099D02*
X153882900Y-113957100D01*
D30*
X142214600Y-94284800D02*
X142214600Y-93534800D01*
X142214600Y-93534800D02*
X142558200Y-93191200D01*
X142558200Y-93191200D02*
X144309700Y-93191200D01*
X144309700Y-93191200D02*
X145934700Y-93191200D01*
X156259400Y-89841200D02*
X157391100Y-88709500D01*
X157391100Y-88709500D02*
X162483800Y-88709500D01*
X148984700Y-89841200D02*
X156259400Y-89841200D01*
D31*
X153882900Y-113457101D02*
X153882900Y-112957099D01*
X143344900Y-111975900D02*
X143344900Y-110369350D01*
X143344900Y-110369350D02*
X146577050Y-107137200D01*
X153976500Y-107137200D02*
X155130500Y-107137200D01*
X146577050Y-107137200D02*
X153976500Y-107137200D01*
X153882900Y-111013700D02*
X155130500Y-109766100D01*
X155130500Y-109766100D02*
X155130500Y-107137200D01*
X153882900Y-112957099D02*
X153882900Y-111013700D01*
X162611167Y-112849599D02*
X162611167Y-115950633D01*
X162611167Y-115950633D02*
X162598100Y-115963700D01*
X159389699Y-114457099D02*
X160896300Y-115963700D01*
X160896300Y-115963700D02*
X162598100Y-115963700D01*
X156682900Y-114457099D02*
X159389699Y-114457099D01*
X156682900Y-114957101D02*
X157236899Y-114957101D01*
X157236899Y-114957101D02*
X159760900Y-117481102D01*
X159760900Y-117481102D02*
X159760900Y-119227600D01*
G36*
X166037150Y-110640039D02*
X166035629Y-110632394D01*
X165842918Y-110343982D01*
X165019917Y-109520981D01*
X164838256Y-109399599D01*
X164731505Y-109328270D01*
X164391299Y-109260599D01*
X163882452Y-109260599D01*
X163864329Y-109164282D01*
X163725257Y-108948158D01*
X163513057Y-108803168D01*
X163261167Y-108752159D01*
X161961167Y-108752159D01*
X161725850Y-108796437D01*
X161509726Y-108935509D01*
X161364736Y-109147709D01*
X161341875Y-109260599D01*
X159400135Y-109260599D01*
X158965900Y-108826364D01*
X158965900Y-103675600D01*
X158898229Y-103335394D01*
X158823932Y-103224200D01*
X160387160Y-103224200D01*
X160387160Y-106224200D01*
X160431438Y-106459517D01*
X160570510Y-106675641D01*
X160782710Y-106820631D01*
X161034600Y-106871640D01*
X161612442Y-106871640D01*
X161612138Y-107220767D01*
X161754183Y-107564543D01*
X162016973Y-107827792D01*
X162360501Y-107970438D01*
X162732467Y-107970762D01*
X163076243Y-107828717D01*
X163339492Y-107565927D01*
X163482138Y-107222399D01*
X163482444Y-106871640D01*
X164034600Y-106871640D01*
X164269917Y-106827362D01*
X164486041Y-106688290D01*
X164631031Y-106476090D01*
X164682040Y-106224200D01*
X164682040Y-103224200D01*
X164637762Y-102988883D01*
X164498690Y-102772759D01*
X164286490Y-102627769D01*
X164034600Y-102576760D01*
X161034600Y-102576760D01*
X160799283Y-102621038D01*
X160583159Y-102760110D01*
X160438169Y-102972310D01*
X160387160Y-103224200D01*
X158823932Y-103224200D01*
X158705518Y-103046982D01*
X157795736Y-102137200D01*
X159399736Y-100533200D01*
X160591854Y-100533200D01*
X160723580Y-100852000D01*
X161323641Y-101453109D01*
X162108059Y-101778828D01*
X162957415Y-101779570D01*
X163742400Y-101455220D01*
X164343509Y-100855159D01*
X164669228Y-100070741D01*
X164669970Y-99221385D01*
X164345620Y-98436400D01*
X163745559Y-97835291D01*
X162961141Y-97509572D01*
X162111785Y-97508830D01*
X161326800Y-97833180D01*
X160725691Y-98433241D01*
X160592002Y-98755200D01*
X159031500Y-98755200D01*
X158691294Y-98822871D01*
X158402882Y-99015582D01*
X156677940Y-100740524D01*
X156677940Y-100387200D01*
X156633662Y-100151883D01*
X156494590Y-99935759D01*
X156282390Y-99790769D01*
X156030500Y-99739760D01*
X154230500Y-99739760D01*
X153995183Y-99784038D01*
X153779059Y-99923110D01*
X153634069Y-100135310D01*
X153583060Y-100387200D01*
X153583060Y-103887200D01*
X153627338Y-104122517D01*
X153766410Y-104338641D01*
X153978610Y-104483631D01*
X154230500Y-104534640D01*
X156030500Y-104534640D01*
X156265817Y-104490362D01*
X156481941Y-104351290D01*
X156626931Y-104139090D01*
X156677940Y-103887200D01*
X156677940Y-103533876D01*
X157187900Y-104043836D01*
X157187900Y-109194600D01*
X157255571Y-109534806D01*
X157342801Y-109665354D01*
X157448282Y-109823218D01*
X158403281Y-110778217D01*
X158691694Y-110970929D01*
X159031899Y-111038599D01*
X161339882Y-111038599D01*
X161358005Y-111134916D01*
X161497077Y-111351040D01*
X161709277Y-111496030D01*
X161722364Y-111498680D01*
X161509726Y-111635509D01*
X161364736Y-111847709D01*
X161313727Y-112099599D01*
X161313727Y-113599599D01*
X161358005Y-113834916D01*
X161497077Y-114051040D01*
X161709277Y-114196030D01*
X161849167Y-114224358D01*
X161849167Y-114584876D01*
X161712783Y-114610538D01*
X161496659Y-114749610D01*
X161351669Y-114961810D01*
X161303090Y-115201700D01*
X161211931Y-115201700D01*
X159928514Y-113918284D01*
X159835075Y-113855850D01*
X159681304Y-113753103D01*
X159389699Y-113695099D01*
X157613470Y-113695099D01*
X157609431Y-113685348D01*
X157630339Y-113582100D01*
X157630339Y-113507191D01*
X157647216Y-113495914D01*
X157698705Y-113444425D01*
X157741367Y-113444462D01*
X158085143Y-113302417D01*
X158348392Y-113039627D01*
X158491038Y-112696099D01*
X158491362Y-112324133D01*
X158349317Y-111980357D01*
X158086527Y-111717108D01*
X157742999Y-111574462D01*
X157371033Y-111574138D01*
X157027257Y-111716183D01*
X156764008Y-111978973D01*
X156678599Y-112184660D01*
X156382901Y-112184660D01*
X156230449Y-112213346D01*
X156230762Y-111854233D01*
X156088717Y-111510457D01*
X155825927Y-111247208D01*
X155482399Y-111104562D01*
X155110433Y-111104238D01*
X154766657Y-111246283D01*
X154644900Y-111367828D01*
X154644900Y-111329330D01*
X155669315Y-110304915D01*
X155758187Y-110171909D01*
X155834496Y-110057705D01*
X155892500Y-109766100D01*
X155892500Y-109534640D01*
X156030500Y-109534640D01*
X156265817Y-109490362D01*
X156481941Y-109351290D01*
X156626931Y-109139090D01*
X156677940Y-108887200D01*
X156677940Y-105387200D01*
X156633662Y-105151883D01*
X156494590Y-104935759D01*
X156282390Y-104790769D01*
X156030500Y-104739760D01*
X154230500Y-104739760D01*
X153995183Y-104784038D01*
X153779059Y-104923110D01*
X153634069Y-105135310D01*
X153583060Y-105387200D01*
X153583060Y-106375200D01*
X146577050Y-106375200D01*
X146285445Y-106433204D01*
X146038234Y-106598385D01*
X142806085Y-109830535D01*
X142708948Y-109975910D01*
X139344400Y-109975910D01*
X139109083Y-110020188D01*
X138892959Y-110159260D01*
X138747969Y-110371460D01*
X138696960Y-110623350D01*
X138696960Y-113328450D01*
X138741238Y-113563767D01*
X138880310Y-113779891D01*
X139092510Y-113924881D01*
X139344400Y-113975890D01*
X147345400Y-113975890D01*
X147580717Y-113931612D01*
X147796841Y-113792540D01*
X147941831Y-113580340D01*
X147992840Y-113328450D01*
X147992840Y-111887849D01*
X148127083Y-112212743D01*
X148389873Y-112475992D01*
X148733401Y-112618638D01*
X149105367Y-112618962D01*
X149316579Y-112531691D01*
X149286060Y-112682400D01*
X149286060Y-113682400D01*
X149330338Y-113917717D01*
X149469410Y-114133841D01*
X149539211Y-114181534D01*
X149482059Y-114218310D01*
X149337069Y-114430510D01*
X149286060Y-114682400D01*
X149286060Y-115682400D01*
X149330338Y-115917717D01*
X149469410Y-116133841D01*
X149681610Y-116278831D01*
X149933500Y-116329840D01*
X151183500Y-116329840D01*
X151418817Y-116285562D01*
X151634941Y-116146490D01*
X151773023Y-115944400D01*
X152254200Y-115944400D01*
X152545805Y-115886396D01*
X152793015Y-115721215D01*
X152795129Y-115719101D01*
X153531352Y-115719101D01*
X153582901Y-115729540D01*
X154182899Y-115729540D01*
X154418216Y-115685262D01*
X154543662Y-115604540D01*
X156022722Y-115604540D01*
X156131011Y-115678531D01*
X156382901Y-115729540D01*
X156931708Y-115729540D01*
X158998900Y-117796733D01*
X158998900Y-117932418D01*
X158775583Y-117974438D01*
X158559459Y-118113510D01*
X158414469Y-118325710D01*
X158411819Y-118338797D01*
X158274990Y-118126159D01*
X158062790Y-117981169D01*
X157810900Y-117930160D01*
X156310900Y-117930160D01*
X156075583Y-117974438D01*
X155859459Y-118113510D01*
X155714469Y-118325710D01*
X155680997Y-118491000D01*
X154055062Y-118491000D01*
X154036562Y-118392683D01*
X153897490Y-118176559D01*
X153685290Y-118031569D01*
X153433400Y-117980560D01*
X152433400Y-117980560D01*
X152198083Y-118024838D01*
X151981959Y-118163910D01*
X151934266Y-118233711D01*
X151897490Y-118176559D01*
X151695400Y-118038477D01*
X151695400Y-117863756D01*
X151731692Y-117827527D01*
X151874338Y-117483999D01*
X151874662Y-117112033D01*
X151732617Y-116768257D01*
X151469827Y-116505008D01*
X151126299Y-116362362D01*
X150754333Y-116362038D01*
X150410557Y-116504083D01*
X150147308Y-116766873D01*
X150004662Y-117110401D01*
X150004338Y-117482367D01*
X150146383Y-117826143D01*
X150171400Y-117851204D01*
X150171400Y-118042008D01*
X149981959Y-118163910D01*
X149836969Y-118376110D01*
X149785960Y-118628000D01*
X149785960Y-119878000D01*
X149830238Y-120113317D01*
X149969310Y-120329441D01*
X150181510Y-120474431D01*
X150433400Y-120525440D01*
X151433400Y-120525440D01*
X151668717Y-120481162D01*
X151884841Y-120342090D01*
X151932534Y-120272289D01*
X151969310Y-120329441D01*
X152181510Y-120474431D01*
X152433400Y-120525440D01*
X153433400Y-120525440D01*
X153668717Y-120481162D01*
X153884841Y-120342090D01*
X154029831Y-120129890D01*
X154053097Y-120015000D01*
X155689314Y-120015000D01*
X155707738Y-120112917D01*
X155846810Y-120329041D01*
X156059010Y-120474031D01*
X156310900Y-120525040D01*
X157810900Y-120525040D01*
X158046217Y-120480762D01*
X158262341Y-120341690D01*
X158407331Y-120129490D01*
X158409981Y-120116403D01*
X158546810Y-120329041D01*
X158759010Y-120474031D01*
X159010900Y-120525040D01*
X160510900Y-120525040D01*
X160746217Y-120480762D01*
X160962341Y-120341690D01*
X161107331Y-120129490D01*
X161158340Y-119877600D01*
X161158340Y-118577600D01*
X161114062Y-118342283D01*
X160974990Y-118126159D01*
X160762790Y-117981169D01*
X160522900Y-117932590D01*
X160522900Y-117481102D01*
X160464896Y-117189497D01*
X160346093Y-117011696D01*
X160299715Y-116942286D01*
X158576527Y-115219099D01*
X159074069Y-115219099D01*
X160357485Y-116502516D01*
X160604696Y-116667697D01*
X160896300Y-116725700D01*
X161302918Y-116725700D01*
X161344938Y-116949017D01*
X161484010Y-117165141D01*
X161696210Y-117310131D01*
X161709297Y-117312781D01*
X161496659Y-117449610D01*
X161351669Y-117661810D01*
X161300660Y-117913700D01*
X161300660Y-119413700D01*
X161344938Y-119649017D01*
X161484010Y-119865141D01*
X161696210Y-120010131D01*
X161948100Y-120061140D01*
X163248100Y-120061140D01*
X163483417Y-120016862D01*
X163699541Y-119877790D01*
X163844531Y-119665590D01*
X163859637Y-119590994D01*
X164167567Y-119591262D01*
X164511343Y-119449217D01*
X164774592Y-119186427D01*
X164917238Y-118842899D01*
X164917562Y-118470933D01*
X164775517Y-118127157D01*
X164512727Y-117863908D01*
X164169199Y-117721262D01*
X163859279Y-117720992D01*
X163851262Y-117678383D01*
X163712190Y-117462259D01*
X163499990Y-117317269D01*
X163486903Y-117314619D01*
X163699541Y-117177790D01*
X163844531Y-116965590D01*
X163895540Y-116713700D01*
X163895540Y-115213700D01*
X163851262Y-114978383D01*
X163712190Y-114762259D01*
X163499990Y-114617269D01*
X163373167Y-114591587D01*
X163373167Y-114225965D01*
X163496484Y-114202761D01*
X163712608Y-114063689D01*
X163857598Y-113851489D01*
X163908607Y-113599599D01*
X163908607Y-112099599D01*
X163864329Y-111864282D01*
X163725257Y-111648158D01*
X163513057Y-111503168D01*
X163499970Y-111500518D01*
X163712608Y-111363689D01*
X163857598Y-111151489D01*
X163880459Y-111038599D01*
X164023063Y-111038599D01*
X164325300Y-111340836D01*
X164325300Y-112186595D01*
X164137859Y-112307210D01*
X163992869Y-112519410D01*
X163941860Y-112771300D01*
X163941860Y-113771300D01*
X163986138Y-114006617D01*
X164125210Y-114222741D01*
X164195011Y-114270434D01*
X164137859Y-114307210D01*
X163992869Y-114519410D01*
X163941860Y-114771300D01*
X163941860Y-115771300D01*
X163986138Y-116006617D01*
X164125210Y-116222741D01*
X164313096Y-116351118D01*
X164266762Y-116462701D01*
X164266438Y-116834667D01*
X164408483Y-117178443D01*
X164671273Y-117441692D01*
X165014801Y-117584338D01*
X165386767Y-117584662D01*
X165730543Y-117442617D01*
X165993792Y-117179827D01*
X166039445Y-117069882D01*
X166040742Y-120702618D01*
X138275893Y-120726782D01*
X138273640Y-117570250D01*
X138709400Y-117570250D01*
X138709400Y-118763359D01*
X138806073Y-118996748D01*
X138984701Y-119175377D01*
X139218090Y-119272050D01*
X143059150Y-119272050D01*
X143217900Y-119113300D01*
X143217900Y-117411500D01*
X143471900Y-117411500D01*
X143471900Y-119113300D01*
X143630650Y-119272050D01*
X147471710Y-119272050D01*
X147705099Y-119175377D01*
X147883727Y-118996748D01*
X147980400Y-118763359D01*
X147980400Y-117570250D01*
X147821650Y-117411500D01*
X143471900Y-117411500D01*
X143217900Y-117411500D01*
X138868150Y-117411500D01*
X138709400Y-117570250D01*
X138273640Y-117570250D01*
X138272380Y-115805641D01*
X138709400Y-115805641D01*
X138709400Y-116998750D01*
X138868150Y-117157500D01*
X143217900Y-117157500D01*
X143217900Y-115455700D01*
X143471900Y-115455700D01*
X143471900Y-117157500D01*
X147821650Y-117157500D01*
X147980400Y-116998750D01*
X147980400Y-115805641D01*
X147883727Y-115572252D01*
X147705099Y-115393623D01*
X147471710Y-115296950D01*
X143630650Y-115296950D01*
X143471900Y-115455700D01*
X143217900Y-115455700D01*
X143059150Y-115296950D01*
X139218090Y-115296950D01*
X138984701Y-115393623D01*
X138806073Y-115572252D01*
X138709400Y-115805641D01*
X138272380Y-115805641D01*
X138267448Y-108899440D01*
X140078500Y-108899440D01*
X140313817Y-108855162D01*
X140529941Y-108716090D01*
X140674931Y-108503890D01*
X140725940Y-108252000D01*
X140725940Y-107989440D01*
X140797580Y-107989440D01*
X140891099Y-108129401D01*
X141515799Y-108754101D01*
X141762360Y-108918848D01*
X142053200Y-108976700D01*
X142160137Y-108976700D01*
X142192273Y-109008892D01*
X142535801Y-109151538D01*
X142907767Y-109151862D01*
X143251543Y-109009817D01*
X143514792Y-108747027D01*
X143657438Y-108403499D01*
X143657762Y-108031533D01*
X143515717Y-107687757D01*
X143252927Y-107424508D01*
X143120378Y-107369468D01*
X143125940Y-107342000D01*
X143125940Y-105867000D01*
X143107408Y-105768512D01*
X143125940Y-105677000D01*
X143125940Y-105227000D01*
X143106433Y-105123329D01*
X143125940Y-105027000D01*
X143125940Y-104577000D01*
X143106433Y-104473329D01*
X143125940Y-104377000D01*
X143125940Y-104309800D01*
X143393260Y-104309800D01*
X143393260Y-105309800D01*
X143437538Y-105545117D01*
X143576610Y-105761241D01*
X143788810Y-105906231D01*
X144040700Y-105957240D01*
X145290700Y-105957240D01*
X145526017Y-105912962D01*
X145742141Y-105773890D01*
X145830942Y-105643925D01*
X146142601Y-105773338D01*
X146514567Y-105773662D01*
X146780263Y-105663879D01*
X146853210Y-105777241D01*
X147065410Y-105922231D01*
X147317300Y-105973240D01*
X148567300Y-105973240D01*
X148802617Y-105928962D01*
X149018741Y-105789890D01*
X149128432Y-105629352D01*
X149444601Y-105760638D01*
X149816567Y-105760962D01*
X150160343Y-105618917D01*
X150423592Y-105356127D01*
X150566238Y-105012599D01*
X150566562Y-104640633D01*
X150424517Y-104296857D01*
X150161727Y-104033608D01*
X149818199Y-103890962D01*
X149446233Y-103890638D01*
X149126797Y-104022626D01*
X149031390Y-103874359D01*
X148963294Y-103827831D01*
X149105627Y-103685498D01*
X149202300Y-103452109D01*
X149202300Y-103111550D01*
X149043550Y-102952800D01*
X148069300Y-102952800D01*
X148069300Y-102972800D01*
X147815300Y-102972800D01*
X147815300Y-102952800D01*
X146841050Y-102952800D01*
X146682300Y-103111550D01*
X146682300Y-103452109D01*
X146778973Y-103685498D01*
X146920210Y-103826736D01*
X146865859Y-103861710D01*
X146766250Y-104007493D01*
X146516199Y-103903662D01*
X146144233Y-103903338D01*
X145859451Y-104021007D01*
X145754790Y-103858359D01*
X145686694Y-103811831D01*
X145829027Y-103669498D01*
X145925700Y-103436109D01*
X145925700Y-103095550D01*
X145766950Y-102936800D01*
X144792700Y-102936800D01*
X144792700Y-102956800D01*
X144538700Y-102956800D01*
X144538700Y-102936800D01*
X143564450Y-102936800D01*
X143405700Y-103095550D01*
X143405700Y-103436109D01*
X143502373Y-103669498D01*
X143643610Y-103810736D01*
X143589259Y-103845710D01*
X143444269Y-104057910D01*
X143393260Y-104309800D01*
X143125940Y-104309800D01*
X143125940Y-103927000D01*
X143106433Y-103823329D01*
X143125940Y-103727000D01*
X143125940Y-103277000D01*
X143112519Y-103205676D01*
X143113500Y-103203309D01*
X143113500Y-103123250D01*
X143093188Y-103102938D01*
X143081662Y-103041683D01*
X142961485Y-102854923D01*
X143074931Y-102688890D01*
X143092597Y-102601653D01*
X143113500Y-102580750D01*
X143113500Y-102500691D01*
X143113193Y-102499949D01*
X143125940Y-102437000D01*
X143125940Y-102183491D01*
X143405700Y-102183491D01*
X143405700Y-102524050D01*
X143564450Y-102682800D01*
X144538700Y-102682800D01*
X144538700Y-101833550D01*
X144792700Y-101833550D01*
X144792700Y-102682800D01*
X145766950Y-102682800D01*
X145925700Y-102524050D01*
X145925700Y-102199491D01*
X146682300Y-102199491D01*
X146682300Y-102540050D01*
X146841050Y-102698800D01*
X147815300Y-102698800D01*
X147815300Y-101849550D01*
X148069300Y-101849550D01*
X148069300Y-102698800D01*
X149043550Y-102698800D01*
X149202300Y-102540050D01*
X149202300Y-102199491D01*
X149105627Y-101966102D01*
X148926999Y-101787473D01*
X148693610Y-101690800D01*
X148228050Y-101690800D01*
X148069300Y-101849550D01*
X147815300Y-101849550D01*
X147656550Y-101690800D01*
X147190990Y-101690800D01*
X146957601Y-101787473D01*
X146778973Y-101966102D01*
X146682300Y-102199491D01*
X145925700Y-102199491D01*
X145925700Y-102183491D01*
X145829027Y-101950102D01*
X145650399Y-101771473D01*
X145417010Y-101674800D01*
X144951450Y-101674800D01*
X144792700Y-101833550D01*
X144538700Y-101833550D01*
X144379950Y-101674800D01*
X143914390Y-101674800D01*
X143681001Y-101771473D01*
X143502373Y-101950102D01*
X143405700Y-102183491D01*
X143125940Y-102183491D01*
X143125940Y-100962000D01*
X143081662Y-100726683D01*
X142942590Y-100510559D01*
X142730390Y-100365569D01*
X142478500Y-100314560D01*
X140725940Y-100314560D01*
X140725940Y-100052000D01*
X140681662Y-99816683D01*
X140542590Y-99600559D01*
X140330390Y-99455569D01*
X140078500Y-99404560D01*
X138260668Y-99404560D01*
X138256656Y-93784800D01*
X140942160Y-93784800D01*
X140942160Y-94784800D01*
X140986438Y-95020117D01*
X141125510Y-95236241D01*
X141195311Y-95283934D01*
X141138159Y-95320710D01*
X140993169Y-95532910D01*
X140942160Y-95784800D01*
X140942160Y-96784800D01*
X140986438Y-97020117D01*
X141125510Y-97236241D01*
X141337710Y-97381231D01*
X141344956Y-97382698D01*
X141279762Y-97539701D01*
X141279438Y-97911667D01*
X141421483Y-98255443D01*
X141684273Y-98518692D01*
X142027801Y-98661338D01*
X142399767Y-98661662D01*
X142743543Y-98519617D01*
X143006792Y-98256827D01*
X143149438Y-97913299D01*
X143149762Y-97541333D01*
X143083981Y-97382130D01*
X143291041Y-97248890D01*
X143436031Y-97036690D01*
X143487040Y-96784800D01*
X143487040Y-96716200D01*
X143932260Y-96716200D01*
X143932260Y-98916200D01*
X143976538Y-99151517D01*
X144115610Y-99367641D01*
X144327810Y-99512631D01*
X144579700Y-99563640D01*
X145779700Y-99563640D01*
X146015017Y-99519362D01*
X146231141Y-99380290D01*
X146376131Y-99168090D01*
X146427140Y-98916200D01*
X146427140Y-98576200D01*
X146428136Y-98576200D01*
X146459473Y-98607592D01*
X146803001Y-98750238D01*
X147174967Y-98750562D01*
X147518743Y-98608517D01*
X147781992Y-98345727D01*
X147883217Y-98101950D01*
X148504700Y-98101950D01*
X148504700Y-99042509D01*
X148601373Y-99275898D01*
X148780001Y-99454527D01*
X149013390Y-99551200D01*
X149453950Y-99551200D01*
X149612700Y-99392450D01*
X149612700Y-97943200D01*
X149866700Y-97943200D01*
X149866700Y-99392450D01*
X150025450Y-99551200D01*
X150466010Y-99551200D01*
X150699399Y-99454527D01*
X150878027Y-99275898D01*
X150974700Y-99042509D01*
X150974700Y-98101950D01*
X150815950Y-97943200D01*
X149866700Y-97943200D01*
X149612700Y-97943200D01*
X148663450Y-97943200D01*
X148504700Y-98101950D01*
X147883217Y-98101950D01*
X147924638Y-98002199D01*
X147924962Y-97630233D01*
X147782917Y-97286457D01*
X147520127Y-97023208D01*
X147176599Y-96880562D01*
X146804633Y-96880238D01*
X146460857Y-97022283D01*
X146427140Y-97055941D01*
X146427140Y-96716200D01*
X146403374Y-96589891D01*
X148504700Y-96589891D01*
X148504700Y-97530450D01*
X148663450Y-97689200D01*
X149612700Y-97689200D01*
X149612700Y-96239950D01*
X149866700Y-96239950D01*
X149866700Y-97689200D01*
X150815950Y-97689200D01*
X150974700Y-97530450D01*
X150974700Y-96589891D01*
X150878027Y-96356502D01*
X150699399Y-96177873D01*
X150466010Y-96081200D01*
X150025450Y-96081200D01*
X149866700Y-96239950D01*
X149612700Y-96239950D01*
X149453950Y-96081200D01*
X149013390Y-96081200D01*
X148780001Y-96177873D01*
X148601373Y-96356502D01*
X148504700Y-96589891D01*
X146403374Y-96589891D01*
X146382862Y-96480883D01*
X146243790Y-96264759D01*
X146031590Y-96119769D01*
X145779700Y-96068760D01*
X144579700Y-96068760D01*
X144344383Y-96113038D01*
X144128259Y-96252110D01*
X143983269Y-96464310D01*
X143932260Y-96716200D01*
X143487040Y-96716200D01*
X143487040Y-95784800D01*
X143442762Y-95549483D01*
X143303690Y-95333359D01*
X143233889Y-95285666D01*
X143291041Y-95248890D01*
X143436031Y-95036690D01*
X143487040Y-94784800D01*
X143487040Y-93951200D01*
X143912260Y-93951200D01*
X143912260Y-94716200D01*
X143956538Y-94951517D01*
X144095610Y-95167641D01*
X144307810Y-95312631D01*
X144559700Y-95363640D01*
X150359700Y-95363640D01*
X150595017Y-95319362D01*
X150811141Y-95180290D01*
X150956131Y-94968090D01*
X151007140Y-94716200D01*
X151007140Y-93974667D01*
X158805438Y-93974667D01*
X158947483Y-94318443D01*
X159210273Y-94581692D01*
X159553801Y-94724338D01*
X159925767Y-94724662D01*
X160269543Y-94582617D01*
X160302718Y-94549500D01*
X160336360Y-94549500D01*
X160336360Y-95289500D01*
X160380638Y-95524817D01*
X160519710Y-95740941D01*
X160731910Y-95885931D01*
X160983800Y-95936940D01*
X163983800Y-95936940D01*
X164219117Y-95892662D01*
X164435241Y-95753590D01*
X164580231Y-95541390D01*
X164631240Y-95289500D01*
X164631240Y-92289500D01*
X164586962Y-92054183D01*
X164447890Y-91838059D01*
X164235690Y-91693069D01*
X163983800Y-91642060D01*
X160983800Y-91642060D01*
X160748483Y-91686338D01*
X160532359Y-91825410D01*
X160387369Y-92037610D01*
X160336360Y-92289500D01*
X160336360Y-93029500D01*
X160303063Y-93029500D01*
X160270927Y-92997308D01*
X159927399Y-92854662D01*
X159555433Y-92854338D01*
X159211657Y-92996383D01*
X158948408Y-93259173D01*
X158805762Y-93602701D01*
X158805438Y-93974667D01*
X151007140Y-93974667D01*
X151007140Y-90601200D01*
X156259400Y-90601200D01*
X156550239Y-90543348D01*
X156796801Y-90378601D01*
X157705902Y-89469500D01*
X160487752Y-89469500D01*
X160672780Y-89917300D01*
X161272841Y-90518409D01*
X162057259Y-90844128D01*
X162906615Y-90844870D01*
X163691600Y-90520520D01*
X164292709Y-89920459D01*
X164618428Y-89136041D01*
X164619170Y-88286685D01*
X164294820Y-87501700D01*
X163694759Y-86900591D01*
X162910341Y-86574872D01*
X162060985Y-86574130D01*
X161276000Y-86898480D01*
X160674891Y-87498541D01*
X160487636Y-87949500D01*
X157391100Y-87949500D01*
X157100261Y-88007352D01*
X157100259Y-88007353D01*
X157100260Y-88007353D01*
X156853699Y-88172099D01*
X155944598Y-89081200D01*
X151007140Y-89081200D01*
X151007140Y-88316200D01*
X150962862Y-88080883D01*
X150823790Y-87864759D01*
X150611590Y-87719769D01*
X150359700Y-87668760D01*
X144559700Y-87668760D01*
X144324383Y-87713038D01*
X144108259Y-87852110D01*
X143963269Y-88064310D01*
X143912260Y-88316200D01*
X143912260Y-92431200D01*
X142558200Y-92431200D01*
X142267361Y-92489052D01*
X142020799Y-92653799D01*
X141677199Y-92997399D01*
X141582829Y-93138634D01*
X141354283Y-93181638D01*
X141138159Y-93320710D01*
X140993169Y-93532910D01*
X140942160Y-93784800D01*
X138256656Y-93784800D01*
X138251507Y-86574391D01*
X166028554Y-86562309D01*
X166037150Y-110640039D01*
X166037150Y-110640039D01*
G37*
X166037150Y-110640039D02*
X166035629Y-110632394D01*
X165842918Y-110343982D01*
X165019917Y-109520981D01*
X164838256Y-109399599D01*
X164731505Y-109328270D01*
X164391299Y-109260599D01*
X163882452Y-109260599D01*
X163864329Y-109164282D01*
X163725257Y-108948158D01*
X163513057Y-108803168D01*
X163261167Y-108752159D01*
X161961167Y-108752159D01*
X161725850Y-108796437D01*
X161509726Y-108935509D01*
X161364736Y-109147709D01*
X161341875Y-109260599D01*
X159400135Y-109260599D01*
X158965900Y-108826364D01*
X158965900Y-103675600D01*
X158898229Y-103335394D01*
X158823932Y-103224200D01*
X160387160Y-103224200D01*
X160387160Y-106224200D01*
X160431438Y-106459517D01*
X160570510Y-106675641D01*
X160782710Y-106820631D01*
X161034600Y-106871640D01*
X161612442Y-106871640D01*
X161612138Y-107220767D01*
X161754183Y-107564543D01*
X162016973Y-107827792D01*
X162360501Y-107970438D01*
X162732467Y-107970762D01*
X163076243Y-107828717D01*
X163339492Y-107565927D01*
X163482138Y-107222399D01*
X163482444Y-106871640D01*
X164034600Y-106871640D01*
X164269917Y-106827362D01*
X164486041Y-106688290D01*
X164631031Y-106476090D01*
X164682040Y-106224200D01*
X164682040Y-103224200D01*
X164637762Y-102988883D01*
X164498690Y-102772759D01*
X164286490Y-102627769D01*
X164034600Y-102576760D01*
X161034600Y-102576760D01*
X160799283Y-102621038D01*
X160583159Y-102760110D01*
X160438169Y-102972310D01*
X160387160Y-103224200D01*
X158823932Y-103224200D01*
X158705518Y-103046982D01*
X157795736Y-102137200D01*
X159399736Y-100533200D01*
X160591854Y-100533200D01*
X160723580Y-100852000D01*
X161323641Y-101453109D01*
X162108059Y-101778828D01*
X162957415Y-101779570D01*
X163742400Y-101455220D01*
X164343509Y-100855159D01*
X164669228Y-100070741D01*
X164669970Y-99221385D01*
X164345620Y-98436400D01*
X163745559Y-97835291D01*
X162961141Y-97509572D01*
X162111785Y-97508830D01*
X161326800Y-97833180D01*
X160725691Y-98433241D01*
X160592002Y-98755200D01*
X159031500Y-98755200D01*
X158691294Y-98822871D01*
X158402882Y-99015582D01*
X156677940Y-100740524D01*
X156677940Y-100387200D01*
X156633662Y-100151883D01*
X156494590Y-99935759D01*
X156282390Y-99790769D01*
X156030500Y-99739760D01*
X154230500Y-99739760D01*
X153995183Y-99784038D01*
X153779059Y-99923110D01*
X153634069Y-100135310D01*
X153583060Y-100387200D01*
X153583060Y-103887200D01*
X153627338Y-104122517D01*
X153766410Y-104338641D01*
X153978610Y-104483631D01*
X154230500Y-104534640D01*
X156030500Y-104534640D01*
X156265817Y-104490362D01*
X156481941Y-104351290D01*
X156626931Y-104139090D01*
X156677940Y-103887200D01*
X156677940Y-103533876D01*
X157187900Y-104043836D01*
X157187900Y-109194600D01*
X157255571Y-109534806D01*
X157342801Y-109665354D01*
X157448282Y-109823218D01*
X158403281Y-110778217D01*
X158691694Y-110970929D01*
X159031899Y-111038599D01*
X161339882Y-111038599D01*
X161358005Y-111134916D01*
X161497077Y-111351040D01*
X161709277Y-111496030D01*
X161722364Y-111498680D01*
X161509726Y-111635509D01*
X161364736Y-111847709D01*
X161313727Y-112099599D01*
X161313727Y-113599599D01*
X161358005Y-113834916D01*
X161497077Y-114051040D01*
X161709277Y-114196030D01*
X161849167Y-114224358D01*
X161849167Y-114584876D01*
X161712783Y-114610538D01*
X161496659Y-114749610D01*
X161351669Y-114961810D01*
X161303090Y-115201700D01*
X161211931Y-115201700D01*
X159928514Y-113918284D01*
X159835075Y-113855850D01*
X159681304Y-113753103D01*
X159389699Y-113695099D01*
X157613470Y-113695099D01*
X157609431Y-113685348D01*
X157630339Y-113582100D01*
X157630339Y-113507191D01*
X157647216Y-113495914D01*
X157698705Y-113444425D01*
X157741367Y-113444462D01*
X158085143Y-113302417D01*
X158348392Y-113039627D01*
X158491038Y-112696099D01*
X158491362Y-112324133D01*
X158349317Y-111980357D01*
X158086527Y-111717108D01*
X157742999Y-111574462D01*
X157371033Y-111574138D01*
X157027257Y-111716183D01*
X156764008Y-111978973D01*
X156678599Y-112184660D01*
X156382901Y-112184660D01*
X156230449Y-112213346D01*
X156230762Y-111854233D01*
X156088717Y-111510457D01*
X155825927Y-111247208D01*
X155482399Y-111104562D01*
X155110433Y-111104238D01*
X154766657Y-111246283D01*
X154644900Y-111367828D01*
X154644900Y-111329330D01*
X155669315Y-110304915D01*
X155758187Y-110171909D01*
X155834496Y-110057705D01*
X155892500Y-109766100D01*
X155892500Y-109534640D01*
X156030500Y-109534640D01*
X156265817Y-109490362D01*
X156481941Y-109351290D01*
X156626931Y-109139090D01*
X156677940Y-108887200D01*
X156677940Y-105387200D01*
X156633662Y-105151883D01*
X156494590Y-104935759D01*
X156282390Y-104790769D01*
X156030500Y-104739760D01*
X154230500Y-104739760D01*
X153995183Y-104784038D01*
X153779059Y-104923110D01*
X153634069Y-105135310D01*
X153583060Y-105387200D01*
X153583060Y-106375200D01*
X146577050Y-106375200D01*
X146285445Y-106433204D01*
X146038234Y-106598385D01*
X142806085Y-109830535D01*
X142708948Y-109975910D01*
X139344400Y-109975910D01*
X139109083Y-110020188D01*
X138892959Y-110159260D01*
X138747969Y-110371460D01*
X138696960Y-110623350D01*
X138696960Y-113328450D01*
X138741238Y-113563767D01*
X138880310Y-113779891D01*
X139092510Y-113924881D01*
X139344400Y-113975890D01*
X147345400Y-113975890D01*
X147580717Y-113931612D01*
X147796841Y-113792540D01*
X147941831Y-113580340D01*
X147992840Y-113328450D01*
X147992840Y-111887849D01*
X148127083Y-112212743D01*
X148389873Y-112475992D01*
X148733401Y-112618638D01*
X149105367Y-112618962D01*
X149316579Y-112531691D01*
X149286060Y-112682400D01*
X149286060Y-113682400D01*
X149330338Y-113917717D01*
X149469410Y-114133841D01*
X149539211Y-114181534D01*
X149482059Y-114218310D01*
X149337069Y-114430510D01*
X149286060Y-114682400D01*
X149286060Y-115682400D01*
X149330338Y-115917717D01*
X149469410Y-116133841D01*
X149681610Y-116278831D01*
X149933500Y-116329840D01*
X151183500Y-116329840D01*
X151418817Y-116285562D01*
X151634941Y-116146490D01*
X151773023Y-115944400D01*
X152254200Y-115944400D01*
X152545805Y-115886396D01*
X152793015Y-115721215D01*
X152795129Y-115719101D01*
X153531352Y-115719101D01*
X153582901Y-115729540D01*
X154182899Y-115729540D01*
X154418216Y-115685262D01*
X154543662Y-115604540D01*
X156022722Y-115604540D01*
X156131011Y-115678531D01*
X156382901Y-115729540D01*
X156931708Y-115729540D01*
X158998900Y-117796733D01*
X158998900Y-117932418D01*
X158775583Y-117974438D01*
X158559459Y-118113510D01*
X158414469Y-118325710D01*
X158411819Y-118338797D01*
X158274990Y-118126159D01*
X158062790Y-117981169D01*
X157810900Y-117930160D01*
X156310900Y-117930160D01*
X156075583Y-117974438D01*
X155859459Y-118113510D01*
X155714469Y-118325710D01*
X155680997Y-118491000D01*
X154055062Y-118491000D01*
X154036562Y-118392683D01*
X153897490Y-118176559D01*
X153685290Y-118031569D01*
X153433400Y-117980560D01*
X152433400Y-117980560D01*
X152198083Y-118024838D01*
X151981959Y-118163910D01*
X151934266Y-118233711D01*
X151897490Y-118176559D01*
X151695400Y-118038477D01*
X151695400Y-117863756D01*
X151731692Y-117827527D01*
X151874338Y-117483999D01*
X151874662Y-117112033D01*
X151732617Y-116768257D01*
X151469827Y-116505008D01*
X151126299Y-116362362D01*
X150754333Y-116362038D01*
X150410557Y-116504083D01*
X150147308Y-116766873D01*
X150004662Y-117110401D01*
X150004338Y-117482367D01*
X150146383Y-117826143D01*
X150171400Y-117851204D01*
X150171400Y-118042008D01*
X149981959Y-118163910D01*
X149836969Y-118376110D01*
X149785960Y-118628000D01*
X149785960Y-119878000D01*
X149830238Y-120113317D01*
X149969310Y-120329441D01*
X150181510Y-120474431D01*
X150433400Y-120525440D01*
X151433400Y-120525440D01*
X151668717Y-120481162D01*
X151884841Y-120342090D01*
X151932534Y-120272289D01*
X151969310Y-120329441D01*
X152181510Y-120474431D01*
X152433400Y-120525440D01*
X153433400Y-120525440D01*
X153668717Y-120481162D01*
X153884841Y-120342090D01*
X154029831Y-120129890D01*
X154053097Y-120015000D01*
X155689314Y-120015000D01*
X155707738Y-120112917D01*
X155846810Y-120329041D01*
X156059010Y-120474031D01*
X156310900Y-120525040D01*
X157810900Y-120525040D01*
X158046217Y-120480762D01*
X158262341Y-120341690D01*
X158407331Y-120129490D01*
X158409981Y-120116403D01*
X158546810Y-120329041D01*
X158759010Y-120474031D01*
X159010900Y-120525040D01*
X160510900Y-120525040D01*
X160746217Y-120480762D01*
X160962341Y-120341690D01*
X161107331Y-120129490D01*
X161158340Y-119877600D01*
X161158340Y-118577600D01*
X161114062Y-118342283D01*
X160974990Y-118126159D01*
X160762790Y-117981169D01*
X160522900Y-117932590D01*
X160522900Y-117481102D01*
X160464896Y-117189497D01*
X160346093Y-117011696D01*
X160299715Y-116942286D01*
X158576527Y-115219099D01*
X159074069Y-115219099D01*
X160357485Y-116502516D01*
X160604696Y-116667697D01*
X160896300Y-116725700D01*
X161302918Y-116725700D01*
X161344938Y-116949017D01*
X161484010Y-117165141D01*
X161696210Y-117310131D01*
X161709297Y-117312781D01*
X161496659Y-117449610D01*
X161351669Y-117661810D01*
X161300660Y-117913700D01*
X161300660Y-119413700D01*
X161344938Y-119649017D01*
X161484010Y-119865141D01*
X161696210Y-120010131D01*
X161948100Y-120061140D01*
X163248100Y-120061140D01*
X163483417Y-120016862D01*
X163699541Y-119877790D01*
X163844531Y-119665590D01*
X163859637Y-119590994D01*
X164167567Y-119591262D01*
X164511343Y-119449217D01*
X164774592Y-119186427D01*
X164917238Y-118842899D01*
X164917562Y-118470933D01*
X164775517Y-118127157D01*
X164512727Y-117863908D01*
X164169199Y-117721262D01*
X163859279Y-117720992D01*
X163851262Y-117678383D01*
X163712190Y-117462259D01*
X163499990Y-117317269D01*
X163486903Y-117314619D01*
X163699541Y-117177790D01*
X163844531Y-116965590D01*
X163895540Y-116713700D01*
X163895540Y-115213700D01*
X163851262Y-114978383D01*
X163712190Y-114762259D01*
X163499990Y-114617269D01*
X163373167Y-114591587D01*
X163373167Y-114225965D01*
X163496484Y-114202761D01*
X163712608Y-114063689D01*
X163857598Y-113851489D01*
X163908607Y-113599599D01*
X163908607Y-112099599D01*
X163864329Y-111864282D01*
X163725257Y-111648158D01*
X163513057Y-111503168D01*
X163499970Y-111500518D01*
X163712608Y-111363689D01*
X163857598Y-111151489D01*
X163880459Y-111038599D01*
X164023063Y-111038599D01*
X164325300Y-111340836D01*
X164325300Y-112186595D01*
X164137859Y-112307210D01*
X163992869Y-112519410D01*
X163941860Y-112771300D01*
X163941860Y-113771300D01*
X163986138Y-114006617D01*
X164125210Y-114222741D01*
X164195011Y-114270434D01*
X164137859Y-114307210D01*
X163992869Y-114519410D01*
X163941860Y-114771300D01*
X163941860Y-115771300D01*
X163986138Y-116006617D01*
X164125210Y-116222741D01*
X164313096Y-116351118D01*
X164266762Y-116462701D01*
X164266438Y-116834667D01*
X164408483Y-117178443D01*
X164671273Y-117441692D01*
X165014801Y-117584338D01*
X165386767Y-117584662D01*
X165730543Y-117442617D01*
X165993792Y-117179827D01*
X166039445Y-117069882D01*
X166040742Y-120702618D01*
X138275893Y-120726782D01*
X138273640Y-117570250D01*
X138709400Y-117570250D01*
X138709400Y-118763359D01*
X138806073Y-118996748D01*
X138984701Y-119175377D01*
X139218090Y-119272050D01*
X143059150Y-119272050D01*
X143217900Y-119113300D01*
X143217900Y-117411500D01*
X143471900Y-117411500D01*
X143471900Y-119113300D01*
X143630650Y-119272050D01*
X147471710Y-119272050D01*
X147705099Y-119175377D01*
X147883727Y-118996748D01*
X147980400Y-118763359D01*
X147980400Y-117570250D01*
X147821650Y-117411500D01*
X143471900Y-117411500D01*
X143217900Y-117411500D01*
X138868150Y-117411500D01*
X138709400Y-117570250D01*
X138273640Y-117570250D01*
X138272380Y-115805641D01*
X138709400Y-115805641D01*
X138709400Y-116998750D01*
X138868150Y-117157500D01*
X143217900Y-117157500D01*
X143217900Y-115455700D01*
X143471900Y-115455700D01*
X143471900Y-117157500D01*
X147821650Y-117157500D01*
X147980400Y-116998750D01*
X147980400Y-115805641D01*
X147883727Y-115572252D01*
X147705099Y-115393623D01*
X147471710Y-115296950D01*
X143630650Y-115296950D01*
X143471900Y-115455700D01*
X143217900Y-115455700D01*
X143059150Y-115296950D01*
X139218090Y-115296950D01*
X138984701Y-115393623D01*
X138806073Y-115572252D01*
X138709400Y-115805641D01*
X138272380Y-115805641D01*
X138267448Y-108899440D01*
X140078500Y-108899440D01*
X140313817Y-108855162D01*
X140529941Y-108716090D01*
X140674931Y-108503890D01*
X140725940Y-108252000D01*
X140725940Y-107989440D01*
X140797580Y-107989440D01*
X140891099Y-108129401D01*
X141515799Y-108754101D01*
X141762360Y-108918848D01*
X142053200Y-108976700D01*
X142160137Y-108976700D01*
X142192273Y-109008892D01*
X142535801Y-109151538D01*
X142907767Y-109151862D01*
X143251543Y-109009817D01*
X143514792Y-108747027D01*
X143657438Y-108403499D01*
X143657762Y-108031533D01*
X143515717Y-107687757D01*
X143252927Y-107424508D01*
X143120378Y-107369468D01*
X143125940Y-107342000D01*
X143125940Y-105867000D01*
X143107408Y-105768512D01*
X143125940Y-105677000D01*
X143125940Y-105227000D01*
X143106433Y-105123329D01*
X143125940Y-105027000D01*
X143125940Y-104577000D01*
X143106433Y-104473329D01*
X143125940Y-104377000D01*
X143125940Y-104309800D01*
X143393260Y-104309800D01*
X143393260Y-105309800D01*
X143437538Y-105545117D01*
X143576610Y-105761241D01*
X143788810Y-105906231D01*
X144040700Y-105957240D01*
X145290700Y-105957240D01*
X145526017Y-105912962D01*
X145742141Y-105773890D01*
X145830942Y-105643925D01*
X146142601Y-105773338D01*
X146514567Y-105773662D01*
X146780263Y-105663879D01*
X146853210Y-105777241D01*
X147065410Y-105922231D01*
X147317300Y-105973240D01*
X148567300Y-105973240D01*
X148802617Y-105928962D01*
X149018741Y-105789890D01*
X149128432Y-105629352D01*
X149444601Y-105760638D01*
X149816567Y-105760962D01*
X150160343Y-105618917D01*
X150423592Y-105356127D01*
X150566238Y-105012599D01*
X150566562Y-104640633D01*
X150424517Y-104296857D01*
X150161727Y-104033608D01*
X149818199Y-103890962D01*
X149446233Y-103890638D01*
X149126797Y-104022626D01*
X149031390Y-103874359D01*
X148963294Y-103827831D01*
X149105627Y-103685498D01*
X149202300Y-103452109D01*
X149202300Y-103111550D01*
X149043550Y-102952800D01*
X148069300Y-102952800D01*
X148069300Y-102972800D01*
X147815300Y-102972800D01*
X147815300Y-102952800D01*
X146841050Y-102952800D01*
X146682300Y-103111550D01*
X146682300Y-103452109D01*
X146778973Y-103685498D01*
X146920210Y-103826736D01*
X146865859Y-103861710D01*
X146766250Y-104007493D01*
X146516199Y-103903662D01*
X146144233Y-103903338D01*
X145859451Y-104021007D01*
X145754790Y-103858359D01*
X145686694Y-103811831D01*
X145829027Y-103669498D01*
X145925700Y-103436109D01*
X145925700Y-103095550D01*
X145766950Y-102936800D01*
X144792700Y-102936800D01*
X144792700Y-102956800D01*
X144538700Y-102956800D01*
X144538700Y-102936800D01*
X143564450Y-102936800D01*
X143405700Y-103095550D01*
X143405700Y-103436109D01*
X143502373Y-103669498D01*
X143643610Y-103810736D01*
X143589259Y-103845710D01*
X143444269Y-104057910D01*
X143393260Y-104309800D01*
X143125940Y-104309800D01*
X143125940Y-103927000D01*
X143106433Y-103823329D01*
X143125940Y-103727000D01*
X143125940Y-103277000D01*
X143112519Y-103205676D01*
X143113500Y-103203309D01*
X143113500Y-103123250D01*
X143093188Y-103102938D01*
X143081662Y-103041683D01*
X142961485Y-102854923D01*
X143074931Y-102688890D01*
X143092597Y-102601653D01*
X143113500Y-102580750D01*
X143113500Y-102500691D01*
X143113193Y-102499949D01*
X143125940Y-102437000D01*
X143125940Y-102183491D01*
X143405700Y-102183491D01*
X143405700Y-102524050D01*
X143564450Y-102682800D01*
X144538700Y-102682800D01*
X144538700Y-101833550D01*
X144792700Y-101833550D01*
X144792700Y-102682800D01*
X145766950Y-102682800D01*
X145925700Y-102524050D01*
X145925700Y-102199491D01*
X146682300Y-102199491D01*
X146682300Y-102540050D01*
X146841050Y-102698800D01*
X147815300Y-102698800D01*
X147815300Y-101849550D01*
X148069300Y-101849550D01*
X148069300Y-102698800D01*
X149043550Y-102698800D01*
X149202300Y-102540050D01*
X149202300Y-102199491D01*
X149105627Y-101966102D01*
X148926999Y-101787473D01*
X148693610Y-101690800D01*
X148228050Y-101690800D01*
X148069300Y-101849550D01*
X147815300Y-101849550D01*
X147656550Y-101690800D01*
X147190990Y-101690800D01*
X146957601Y-101787473D01*
X146778973Y-101966102D01*
X146682300Y-102199491D01*
X145925700Y-102199491D01*
X145925700Y-102183491D01*
X145829027Y-101950102D01*
X145650399Y-101771473D01*
X145417010Y-101674800D01*
X144951450Y-101674800D01*
X144792700Y-101833550D01*
X144538700Y-101833550D01*
X144379950Y-101674800D01*
X143914390Y-101674800D01*
X143681001Y-101771473D01*
X143502373Y-101950102D01*
X143405700Y-102183491D01*
X143125940Y-102183491D01*
X143125940Y-100962000D01*
X143081662Y-100726683D01*
X142942590Y-100510559D01*
X142730390Y-100365569D01*
X142478500Y-100314560D01*
X140725940Y-100314560D01*
X140725940Y-100052000D01*
X140681662Y-99816683D01*
X140542590Y-99600559D01*
X140330390Y-99455569D01*
X140078500Y-99404560D01*
X138260668Y-99404560D01*
X138256656Y-93784800D01*
X140942160Y-93784800D01*
X140942160Y-94784800D01*
X140986438Y-95020117D01*
X141125510Y-95236241D01*
X141195311Y-95283934D01*
X141138159Y-95320710D01*
X140993169Y-95532910D01*
X140942160Y-95784800D01*
X140942160Y-96784800D01*
X140986438Y-97020117D01*
X141125510Y-97236241D01*
X141337710Y-97381231D01*
X141344956Y-97382698D01*
X141279762Y-97539701D01*
X141279438Y-97911667D01*
X141421483Y-98255443D01*
X141684273Y-98518692D01*
X142027801Y-98661338D01*
X142399767Y-98661662D01*
X142743543Y-98519617D01*
X143006792Y-98256827D01*
X143149438Y-97913299D01*
X143149762Y-97541333D01*
X143083981Y-97382130D01*
X143291041Y-97248890D01*
X143436031Y-97036690D01*
X143487040Y-96784800D01*
X143487040Y-96716200D01*
X143932260Y-96716200D01*
X143932260Y-98916200D01*
X143976538Y-99151517D01*
X144115610Y-99367641D01*
X144327810Y-99512631D01*
X144579700Y-99563640D01*
X145779700Y-99563640D01*
X146015017Y-99519362D01*
X146231141Y-99380290D01*
X146376131Y-99168090D01*
X146427140Y-98916200D01*
X146427140Y-98576200D01*
X146428136Y-98576200D01*
X146459473Y-98607592D01*
X146803001Y-98750238D01*
X147174967Y-98750562D01*
X147518743Y-98608517D01*
X147781992Y-98345727D01*
X147883217Y-98101950D01*
X148504700Y-98101950D01*
X148504700Y-99042509D01*
X148601373Y-99275898D01*
X148780001Y-99454527D01*
X149013390Y-99551200D01*
X149453950Y-99551200D01*
X149612700Y-99392450D01*
X149612700Y-97943200D01*
X149866700Y-97943200D01*
X149866700Y-99392450D01*
X150025450Y-99551200D01*
X150466010Y-99551200D01*
X150699399Y-99454527D01*
X150878027Y-99275898D01*
X150974700Y-99042509D01*
X150974700Y-98101950D01*
X150815950Y-97943200D01*
X149866700Y-97943200D01*
X149612700Y-97943200D01*
X148663450Y-97943200D01*
X148504700Y-98101950D01*
X147883217Y-98101950D01*
X147924638Y-98002199D01*
X147924962Y-97630233D01*
X147782917Y-97286457D01*
X147520127Y-97023208D01*
X147176599Y-96880562D01*
X146804633Y-96880238D01*
X146460857Y-97022283D01*
X146427140Y-97055941D01*
X146427140Y-96716200D01*
X146403374Y-96589891D01*
X148504700Y-96589891D01*
X148504700Y-97530450D01*
X148663450Y-97689200D01*
X149612700Y-97689200D01*
X149612700Y-96239950D01*
X149866700Y-96239950D01*
X149866700Y-97689200D01*
X150815950Y-97689200D01*
X150974700Y-97530450D01*
X150974700Y-96589891D01*
X150878027Y-96356502D01*
X150699399Y-96177873D01*
X150466010Y-96081200D01*
X150025450Y-96081200D01*
X149866700Y-96239950D01*
X149612700Y-96239950D01*
X149453950Y-96081200D01*
X149013390Y-96081200D01*
X148780001Y-96177873D01*
X148601373Y-96356502D01*
X148504700Y-96589891D01*
X146403374Y-96589891D01*
X146382862Y-96480883D01*
X146243790Y-96264759D01*
X146031590Y-96119769D01*
X145779700Y-96068760D01*
X144579700Y-96068760D01*
X144344383Y-96113038D01*
X144128259Y-96252110D01*
X143983269Y-96464310D01*
X143932260Y-96716200D01*
X143487040Y-96716200D01*
X143487040Y-95784800D01*
X143442762Y-95549483D01*
X143303690Y-95333359D01*
X143233889Y-95285666D01*
X143291041Y-95248890D01*
X143436031Y-95036690D01*
X143487040Y-94784800D01*
X143487040Y-93951200D01*
X143912260Y-93951200D01*
X143912260Y-94716200D01*
X143956538Y-94951517D01*
X144095610Y-95167641D01*
X144307810Y-95312631D01*
X144559700Y-95363640D01*
X150359700Y-95363640D01*
X150595017Y-95319362D01*
X150811141Y-95180290D01*
X150956131Y-94968090D01*
X151007140Y-94716200D01*
X151007140Y-93974667D01*
X158805438Y-93974667D01*
X158947483Y-94318443D01*
X159210273Y-94581692D01*
X159553801Y-94724338D01*
X159925767Y-94724662D01*
X160269543Y-94582617D01*
X160302718Y-94549500D01*
X160336360Y-94549500D01*
X160336360Y-95289500D01*
X160380638Y-95524817D01*
X160519710Y-95740941D01*
X160731910Y-95885931D01*
X160983800Y-95936940D01*
X163983800Y-95936940D01*
X164219117Y-95892662D01*
X164435241Y-95753590D01*
X164580231Y-95541390D01*
X164631240Y-95289500D01*
X164631240Y-92289500D01*
X164586962Y-92054183D01*
X164447890Y-91838059D01*
X164235690Y-91693069D01*
X163983800Y-91642060D01*
X160983800Y-91642060D01*
X160748483Y-91686338D01*
X160532359Y-91825410D01*
X160387369Y-92037610D01*
X160336360Y-92289500D01*
X160336360Y-93029500D01*
X160303063Y-93029500D01*
X160270927Y-92997308D01*
X159927399Y-92854662D01*
X159555433Y-92854338D01*
X159211657Y-92996383D01*
X158948408Y-93259173D01*
X158805762Y-93602701D01*
X158805438Y-93974667D01*
X151007140Y-93974667D01*
X151007140Y-90601200D01*
X156259400Y-90601200D01*
X156550239Y-90543348D01*
X156796801Y-90378601D01*
X157705902Y-89469500D01*
X160487752Y-89469500D01*
X160672780Y-89917300D01*
X161272841Y-90518409D01*
X162057259Y-90844128D01*
X162906615Y-90844870D01*
X163691600Y-90520520D01*
X164292709Y-89920459D01*
X164618428Y-89136041D01*
X164619170Y-88286685D01*
X164294820Y-87501700D01*
X163694759Y-86900591D01*
X162910341Y-86574872D01*
X162060985Y-86574130D01*
X161276000Y-86898480D01*
X160674891Y-87498541D01*
X160487636Y-87949500D01*
X157391100Y-87949500D01*
X157100261Y-88007352D01*
X157100259Y-88007353D01*
X157100260Y-88007353D01*
X156853699Y-88172099D01*
X155944598Y-89081200D01*
X151007140Y-89081200D01*
X151007140Y-88316200D01*
X150962862Y-88080883D01*
X150823790Y-87864759D01*
X150611590Y-87719769D01*
X150359700Y-87668760D01*
X144559700Y-87668760D01*
X144324383Y-87713038D01*
X144108259Y-87852110D01*
X143963269Y-88064310D01*
X143912260Y-88316200D01*
X143912260Y-92431200D01*
X142558200Y-92431200D01*
X142267361Y-92489052D01*
X142020799Y-92653799D01*
X141677199Y-92997399D01*
X141582829Y-93138634D01*
X141354283Y-93181638D01*
X141138159Y-93320710D01*
X140993169Y-93532910D01*
X140942160Y-93784800D01*
X138256656Y-93784800D01*
X138251507Y-86574391D01*
X166028554Y-86562309D01*
X166037150Y-110640039D01*
G36*
X153583060Y-108887200D02*
X153627338Y-109122517D01*
X153766410Y-109338641D01*
X153978610Y-109483631D01*
X154230500Y-109534640D01*
X154284330Y-109534640D01*
X153344085Y-110474885D01*
X153178904Y-110722095D01*
X153120900Y-111013700D01*
X153120900Y-112383465D01*
X152986470Y-112580210D01*
X152935461Y-112832100D01*
X152935461Y-113082098D01*
X152959845Y-113211689D01*
X152935461Y-113332102D01*
X152935461Y-113582100D01*
X152955351Y-113687806D01*
X152947901Y-113705792D01*
X152947901Y-113735851D01*
X152968213Y-113756163D01*
X152979739Y-113817417D01*
X153065806Y-113951169D01*
X153044574Y-113972402D01*
X152967305Y-114158945D01*
X152947901Y-114178349D01*
X152947901Y-114195101D01*
X152479499Y-114195101D01*
X152187894Y-114253105D01*
X151940684Y-114418286D01*
X151938570Y-114420400D01*
X151769492Y-114420400D01*
X151647590Y-114230959D01*
X151577789Y-114183266D01*
X151634941Y-114146490D01*
X151779931Y-113934290D01*
X151830940Y-113682400D01*
X151830940Y-112682400D01*
X151786662Y-112447083D01*
X151647590Y-112230959D01*
X151435390Y-112085969D01*
X151293743Y-112057285D01*
X151262496Y-111900195D01*
X151169154Y-111760499D01*
X151097315Y-111652984D01*
X150589315Y-111144985D01*
X150482100Y-111073346D01*
X150342105Y-110979804D01*
X150050500Y-110921800D01*
X149480666Y-110921800D01*
X149450527Y-110891608D01*
X149106999Y-110748962D01*
X148735033Y-110748638D01*
X148391257Y-110890683D01*
X148128008Y-111153473D01*
X147992840Y-111478992D01*
X147992840Y-110623350D01*
X147948562Y-110388033D01*
X147809490Y-110171909D01*
X147597290Y-110026919D01*
X147345400Y-109975910D01*
X144815970Y-109975910D01*
X146892681Y-107899200D01*
X153583060Y-107899200D01*
X153583060Y-108887200D01*
X153583060Y-108887200D01*
G37*
X153583060Y-108887200D02*
X153627338Y-109122517D01*
X153766410Y-109338641D01*
X153978610Y-109483631D01*
X154230500Y-109534640D01*
X154284330Y-109534640D01*
X153344085Y-110474885D01*
X153178904Y-110722095D01*
X153120900Y-111013700D01*
X153120900Y-112383465D01*
X152986470Y-112580210D01*
X152935461Y-112832100D01*
X152935461Y-113082098D01*
X152959845Y-113211689D01*
X152935461Y-113332102D01*
X152935461Y-113582100D01*
X152955351Y-113687806D01*
X152947901Y-113705792D01*
X152947901Y-113735851D01*
X152968213Y-113756163D01*
X152979739Y-113817417D01*
X153065806Y-113951169D01*
X153044574Y-113972402D01*
X152967305Y-114158945D01*
X152947901Y-114178349D01*
X152947901Y-114195101D01*
X152479499Y-114195101D01*
X152187894Y-114253105D01*
X151940684Y-114418286D01*
X151938570Y-114420400D01*
X151769492Y-114420400D01*
X151647590Y-114230959D01*
X151577789Y-114183266D01*
X151634941Y-114146490D01*
X151779931Y-113934290D01*
X151830940Y-113682400D01*
X151830940Y-112682400D01*
X151786662Y-112447083D01*
X151647590Y-112230959D01*
X151435390Y-112085969D01*
X151293743Y-112057285D01*
X151262496Y-111900195D01*
X151169154Y-111760499D01*
X151097315Y-111652984D01*
X150589315Y-111144985D01*
X150482100Y-111073346D01*
X150342105Y-110979804D01*
X150050500Y-110921800D01*
X149480666Y-110921800D01*
X149450527Y-110891608D01*
X149106999Y-110748962D01*
X148735033Y-110748638D01*
X148391257Y-110890683D01*
X148128008Y-111153473D01*
X147992840Y-111478992D01*
X147992840Y-110623350D01*
X147948562Y-110388033D01*
X147809490Y-110171909D01*
X147597290Y-110026919D01*
X147345400Y-109975910D01*
X144815970Y-109975910D01*
X146892681Y-107899200D01*
X153583060Y-107899200D01*
X153583060Y-108887200D01*
M02*
