G04 #@! TF.FileFunction,Copper,L2,Bot,Signal*
%FSLAX46Y46*%
G04 Gerber Fmt 4.6, Leading zero omitted, Abs format (unit mm)*
G04 Created by KiCad (PCBNEW 4.0.7) date 09/28/20 15:07:36*
%MOMM*%
%LPD*%
G01*
G04 APERTURE LIST*
%ADD10C,0.100000*%
%ADD11R,3.000000X3.000000*%
%ADD12C,3.000000*%
%ADD13C,0.600000*%
%ADD14C,0.250000*%
%ADD15C,0.254000*%
G04 APERTURE END LIST*
D10*
D11*
X162483800Y-93789500D03*
D12*
X162483800Y-88709500D03*
D11*
X162534600Y-104724200D03*
D12*
X162534600Y-99644200D03*
D13*
X163982400Y-118656100D03*
X165201600Y-116649500D03*
X142214600Y-97726500D03*
X146989800Y-97815400D03*
X142722600Y-108216700D03*
X146329400Y-104838500D03*
X149631400Y-104825800D03*
X162547300Y-107035600D03*
X159740600Y-93789500D03*
X155295600Y-112039400D03*
X157556200Y-112509300D03*
X148920200Y-111683800D03*
X150939500Y-117297200D03*
X159372300Y-112712500D03*
X152615900Y-115925600D03*
X152527000Y-113868200D03*
D14*
X152527000Y-113868200D02*
X152527000Y-115836700D01*
X152527000Y-115836700D02*
X152615900Y-115925600D01*
X152632384Y-115909116D02*
X152615900Y-115925600D01*
D15*
G36*
X166040742Y-120702618D02*
X138275893Y-120726782D01*
X138271128Y-114053367D01*
X151591838Y-114053367D01*
X151733883Y-114397143D01*
X151767000Y-114430318D01*
X151767000Y-115531840D01*
X151681062Y-115738801D01*
X151680738Y-116110767D01*
X151822783Y-116454543D01*
X152085573Y-116717792D01*
X152429101Y-116860438D01*
X152801067Y-116860762D01*
X153144843Y-116718717D01*
X153408092Y-116455927D01*
X153550738Y-116112399D01*
X153551062Y-115740433D01*
X153409017Y-115396657D01*
X153287000Y-115274427D01*
X153287000Y-114430663D01*
X153319192Y-114398527D01*
X153461838Y-114054999D01*
X153462162Y-113683033D01*
X153320117Y-113339257D01*
X153057327Y-113076008D01*
X152713799Y-112933362D01*
X152341833Y-112933038D01*
X151998057Y-113075083D01*
X151734808Y-113337873D01*
X151592162Y-113681401D01*
X151591838Y-114053367D01*
X138271128Y-114053367D01*
X138270303Y-112897667D01*
X158437138Y-112897667D01*
X158579183Y-113241443D01*
X158841973Y-113504692D01*
X159185501Y-113647338D01*
X159557467Y-113647662D01*
X159901243Y-113505617D01*
X160164492Y-113242827D01*
X160307138Y-112899299D01*
X160307462Y-112527333D01*
X160165417Y-112183557D01*
X159902627Y-111920308D01*
X159559099Y-111777662D01*
X159187133Y-111777338D01*
X158843357Y-111919383D01*
X158580108Y-112182173D01*
X158437462Y-112525701D01*
X158437138Y-112897667D01*
X138270303Y-112897667D01*
X138264672Y-105009950D01*
X160399600Y-105009950D01*
X160399600Y-106350509D01*
X160496273Y-106583898D01*
X160674901Y-106762527D01*
X160908290Y-106859200D01*
X162248850Y-106859200D01*
X162407600Y-106700450D01*
X162407600Y-104851200D01*
X162661600Y-104851200D01*
X162661600Y-106700450D01*
X162820350Y-106859200D01*
X164160910Y-106859200D01*
X164394299Y-106762527D01*
X164572927Y-106583898D01*
X164669600Y-106350509D01*
X164669600Y-105009950D01*
X164510850Y-104851200D01*
X162661600Y-104851200D01*
X162407600Y-104851200D01*
X160558350Y-104851200D01*
X160399600Y-105009950D01*
X138264672Y-105009950D01*
X138263307Y-103097891D01*
X160399600Y-103097891D01*
X160399600Y-104438450D01*
X160558350Y-104597200D01*
X162407600Y-104597200D01*
X162407600Y-102747950D01*
X162661600Y-102747950D01*
X162661600Y-104597200D01*
X164510850Y-104597200D01*
X164669600Y-104438450D01*
X164669600Y-103097891D01*
X164572927Y-102864502D01*
X164394299Y-102685873D01*
X164160910Y-102589200D01*
X162820350Y-102589200D01*
X162661600Y-102747950D01*
X162407600Y-102747950D01*
X162248850Y-102589200D01*
X160908290Y-102589200D01*
X160674901Y-102685873D01*
X160496273Y-102864502D01*
X160399600Y-103097891D01*
X138263307Y-103097891D01*
X138261143Y-100067015D01*
X160399230Y-100067015D01*
X160723580Y-100852000D01*
X161323641Y-101453109D01*
X162108059Y-101778828D01*
X162957415Y-101779570D01*
X163742400Y-101455220D01*
X164343509Y-100855159D01*
X164669228Y-100070741D01*
X164669970Y-99221385D01*
X164345620Y-98436400D01*
X163745559Y-97835291D01*
X162961141Y-97509572D01*
X162111785Y-97508830D01*
X161326800Y-97833180D01*
X160725691Y-98433241D01*
X160399972Y-99217659D01*
X160399230Y-100067015D01*
X138261143Y-100067015D01*
X138256864Y-94075250D01*
X160348800Y-94075250D01*
X160348800Y-95415809D01*
X160445473Y-95649198D01*
X160624101Y-95827827D01*
X160857490Y-95924500D01*
X162198050Y-95924500D01*
X162356800Y-95765750D01*
X162356800Y-93916500D01*
X162610800Y-93916500D01*
X162610800Y-95765750D01*
X162769550Y-95924500D01*
X164110110Y-95924500D01*
X164343499Y-95827827D01*
X164522127Y-95649198D01*
X164618800Y-95415809D01*
X164618800Y-94075250D01*
X164460050Y-93916500D01*
X162610800Y-93916500D01*
X162356800Y-93916500D01*
X160507550Y-93916500D01*
X160348800Y-94075250D01*
X138256864Y-94075250D01*
X138255499Y-92163191D01*
X160348800Y-92163191D01*
X160348800Y-93503750D01*
X160507550Y-93662500D01*
X162356800Y-93662500D01*
X162356800Y-91813250D01*
X162610800Y-91813250D01*
X162610800Y-93662500D01*
X164460050Y-93662500D01*
X164618800Y-93503750D01*
X164618800Y-92163191D01*
X164522127Y-91929802D01*
X164343499Y-91751173D01*
X164110110Y-91654500D01*
X162769550Y-91654500D01*
X162610800Y-91813250D01*
X162356800Y-91813250D01*
X162198050Y-91654500D01*
X160857490Y-91654500D01*
X160624101Y-91751173D01*
X160445473Y-91929802D01*
X160348800Y-92163191D01*
X138255499Y-92163191D01*
X138253334Y-89132315D01*
X160348430Y-89132315D01*
X160672780Y-89917300D01*
X161272841Y-90518409D01*
X162057259Y-90844128D01*
X162906615Y-90844870D01*
X163691600Y-90520520D01*
X164292709Y-89920459D01*
X164618428Y-89136041D01*
X164619170Y-88286685D01*
X164294820Y-87501700D01*
X163694759Y-86900591D01*
X162910341Y-86574872D01*
X162060985Y-86574130D01*
X161276000Y-86898480D01*
X160674891Y-87498541D01*
X160349172Y-88282959D01*
X160348430Y-89132315D01*
X138253334Y-89132315D01*
X138251507Y-86574391D01*
X166028554Y-86562309D01*
X166040742Y-120702618D01*
X166040742Y-120702618D01*
G37*
X166040742Y-120702618D02*
X138275893Y-120726782D01*
X138271128Y-114053367D01*
X151591838Y-114053367D01*
X151733883Y-114397143D01*
X151767000Y-114430318D01*
X151767000Y-115531840D01*
X151681062Y-115738801D01*
X151680738Y-116110767D01*
X151822783Y-116454543D01*
X152085573Y-116717792D01*
X152429101Y-116860438D01*
X152801067Y-116860762D01*
X153144843Y-116718717D01*
X153408092Y-116455927D01*
X153550738Y-116112399D01*
X153551062Y-115740433D01*
X153409017Y-115396657D01*
X153287000Y-115274427D01*
X153287000Y-114430663D01*
X153319192Y-114398527D01*
X153461838Y-114054999D01*
X153462162Y-113683033D01*
X153320117Y-113339257D01*
X153057327Y-113076008D01*
X152713799Y-112933362D01*
X152341833Y-112933038D01*
X151998057Y-113075083D01*
X151734808Y-113337873D01*
X151592162Y-113681401D01*
X151591838Y-114053367D01*
X138271128Y-114053367D01*
X138270303Y-112897667D01*
X158437138Y-112897667D01*
X158579183Y-113241443D01*
X158841973Y-113504692D01*
X159185501Y-113647338D01*
X159557467Y-113647662D01*
X159901243Y-113505617D01*
X160164492Y-113242827D01*
X160307138Y-112899299D01*
X160307462Y-112527333D01*
X160165417Y-112183557D01*
X159902627Y-111920308D01*
X159559099Y-111777662D01*
X159187133Y-111777338D01*
X158843357Y-111919383D01*
X158580108Y-112182173D01*
X158437462Y-112525701D01*
X158437138Y-112897667D01*
X138270303Y-112897667D01*
X138264672Y-105009950D01*
X160399600Y-105009950D01*
X160399600Y-106350509D01*
X160496273Y-106583898D01*
X160674901Y-106762527D01*
X160908290Y-106859200D01*
X162248850Y-106859200D01*
X162407600Y-106700450D01*
X162407600Y-104851200D01*
X162661600Y-104851200D01*
X162661600Y-106700450D01*
X162820350Y-106859200D01*
X164160910Y-106859200D01*
X164394299Y-106762527D01*
X164572927Y-106583898D01*
X164669600Y-106350509D01*
X164669600Y-105009950D01*
X164510850Y-104851200D01*
X162661600Y-104851200D01*
X162407600Y-104851200D01*
X160558350Y-104851200D01*
X160399600Y-105009950D01*
X138264672Y-105009950D01*
X138263307Y-103097891D01*
X160399600Y-103097891D01*
X160399600Y-104438450D01*
X160558350Y-104597200D01*
X162407600Y-104597200D01*
X162407600Y-102747950D01*
X162661600Y-102747950D01*
X162661600Y-104597200D01*
X164510850Y-104597200D01*
X164669600Y-104438450D01*
X164669600Y-103097891D01*
X164572927Y-102864502D01*
X164394299Y-102685873D01*
X164160910Y-102589200D01*
X162820350Y-102589200D01*
X162661600Y-102747950D01*
X162407600Y-102747950D01*
X162248850Y-102589200D01*
X160908290Y-102589200D01*
X160674901Y-102685873D01*
X160496273Y-102864502D01*
X160399600Y-103097891D01*
X138263307Y-103097891D01*
X138261143Y-100067015D01*
X160399230Y-100067015D01*
X160723580Y-100852000D01*
X161323641Y-101453109D01*
X162108059Y-101778828D01*
X162957415Y-101779570D01*
X163742400Y-101455220D01*
X164343509Y-100855159D01*
X164669228Y-100070741D01*
X164669970Y-99221385D01*
X164345620Y-98436400D01*
X163745559Y-97835291D01*
X162961141Y-97509572D01*
X162111785Y-97508830D01*
X161326800Y-97833180D01*
X160725691Y-98433241D01*
X160399972Y-99217659D01*
X160399230Y-100067015D01*
X138261143Y-100067015D01*
X138256864Y-94075250D01*
X160348800Y-94075250D01*
X160348800Y-95415809D01*
X160445473Y-95649198D01*
X160624101Y-95827827D01*
X160857490Y-95924500D01*
X162198050Y-95924500D01*
X162356800Y-95765750D01*
X162356800Y-93916500D01*
X162610800Y-93916500D01*
X162610800Y-95765750D01*
X162769550Y-95924500D01*
X164110110Y-95924500D01*
X164343499Y-95827827D01*
X164522127Y-95649198D01*
X164618800Y-95415809D01*
X164618800Y-94075250D01*
X164460050Y-93916500D01*
X162610800Y-93916500D01*
X162356800Y-93916500D01*
X160507550Y-93916500D01*
X160348800Y-94075250D01*
X138256864Y-94075250D01*
X138255499Y-92163191D01*
X160348800Y-92163191D01*
X160348800Y-93503750D01*
X160507550Y-93662500D01*
X162356800Y-93662500D01*
X162356800Y-91813250D01*
X162610800Y-91813250D01*
X162610800Y-93662500D01*
X164460050Y-93662500D01*
X164618800Y-93503750D01*
X164618800Y-92163191D01*
X164522127Y-91929802D01*
X164343499Y-91751173D01*
X164110110Y-91654500D01*
X162769550Y-91654500D01*
X162610800Y-91813250D01*
X162356800Y-91813250D01*
X162198050Y-91654500D01*
X160857490Y-91654500D01*
X160624101Y-91751173D01*
X160445473Y-91929802D01*
X160348800Y-92163191D01*
X138255499Y-92163191D01*
X138253334Y-89132315D01*
X160348430Y-89132315D01*
X160672780Y-89917300D01*
X161272841Y-90518409D01*
X162057259Y-90844128D01*
X162906615Y-90844870D01*
X163691600Y-90520520D01*
X164292709Y-89920459D01*
X164618428Y-89136041D01*
X164619170Y-88286685D01*
X164294820Y-87501700D01*
X163694759Y-86900591D01*
X162910341Y-86574872D01*
X162060985Y-86574130D01*
X161276000Y-86898480D01*
X160674891Y-87498541D01*
X160349172Y-88282959D01*
X160348430Y-89132315D01*
X138253334Y-89132315D01*
X138251507Y-86574391D01*
X166028554Y-86562309D01*
X166040742Y-120702618D01*
M02*
