M48
;DRILL file {KiCad 4.0.7} date 09/28/20 15:07:26
;FORMAT={-:-/ absolute / metric / decimal}
FMAT,2
METRIC,TZ
T1C0.400
T2C1.520
%
G90
G05
M71
T1
X142.215Y-97.727
X142.723Y-108.217
X146.329Y-104.838
X146.99Y-97.815
X148.92Y-111.684
X149.631Y-104.826
X150.939Y-117.297
X152.527Y-113.868
X152.616Y-115.926
X155.296Y-112.039
X157.556Y-112.509
X159.372Y-112.712
X159.741Y-93.789
X162.547Y-107.036
X163.982Y-118.656
X165.202Y-116.649
T2
X162.484Y-88.709
X162.484Y-93.789
X162.535Y-99.644
X162.535Y-104.724
T0
M30
